<svg width="32.000000" height="18.625000" viewBox="0 0 32 18.625" fill="none" xmlns="http://www.w3.org/2000/svg" xmlns:xlink="http://www.w3.org/1999/xlink">
	<desc>
			Created with Pixso.
	</desc>
	<defs>
		<clipPath id="clip0_1984">
			<rect id="svg" width="32.000000" height="18.625000" fill="white" fill-opacity="0"/>
		</clipPath>
		<linearGradient x1="4.033054" y1="9.814699" x2="12.385492" y2="12.566280" id="paint_linear_0_1986_0" gradientUnits="userSpaceOnUse">
			<stop stop-color="#D86C1A"/>
			<stop offset="1.000000" stop-color="#E87E25"/>
		</linearGradient>
		<linearGradient x1="11.137254" y1="9.108035" x2="9.836590" y2="14.238155" id="paint_linear_0_1993_0" gradientUnits="userSpaceOnUse">
			<stop stop-color="#FF922E"/>
			<stop offset="1.000000" stop-color="#FFC239"/>
		</linearGradient>
		<linearGradient x1="4.802683" y1="7.251343" x2="13.155339" y2="10.002924" id="paint_linear_0_2016_0" gradientUnits="userSpaceOnUse">
			<stop stop-color="#D86C1A"/>
			<stop offset="1.000000" stop-color="#E87E25"/>
		</linearGradient>
		<linearGradient x1="11.906784" y1="6.544680" x2="10.606339" y2="11.674797" id="paint_linear_0_2023_0" gradientUnits="userSpaceOnUse">
			<stop stop-color="#FF922E"/>
			<stop offset="1.000000" stop-color="#FFC239"/>
		</linearGradient>
		<linearGradient x1="13.082181" y1="10.135132" x2="29.091335" y2="10.135132" id="paint_linear_0_2046_0" gradientUnits="userSpaceOnUse">
			<stop stop-color="#D86C1A"/>
			<stop offset="1.000000" stop-color="#E87E25"/>
		</linearGradient>
	</defs>
	<g clip-path="url(#clip0_1984)">
		<path id="Vector" d="M19.84 10.23L18.43 10.24C16.69 9.29 13.53 8.65 9.92 8.65C6.13 8.65 2.83 9.35 1.16 10.39L0 10.39L0 11.91C0 11.91 0 11.92 0 11.92C0 13.72 4.44 15.19 9.92 15.19C15.39 15.19 19.84 13.72 19.84 11.92C19.84 11.92 19.84 11.91 19.84 11.91L19.84 10.23Z" fill="url(#paint_linear_0_1986_0)" fill-opacity="1.000000" fill-rule="nonzero"/>
		<path id="Vector" d="M9.92 13.59C15.4 13.59 19.84 12.13 19.84 10.32C19.84 8.52 15.4 7.06 9.92 7.06C4.44 7.06 0 8.52 0 10.32C0 12.13 4.44 13.59 9.92 13.59Z" fill="#FF922E" fill-opacity="1.000000" fill-rule="nonzero"/>
		<path id="Vector" d="M9.92 12.33C13.28 12.33 16.01 11.43 16.01 10.32C16.01 9.22 13.28 8.32 9.92 8.32C6.55 8.32 3.83 9.22 3.83 10.32C3.83 11.43 6.55 12.33 9.92 12.33Z" fill="#FFFFFF" fill-opacity="1.000000" fill-rule="nonzero"/>
		<path id="Vector" d="M9.93 8.26L9.64 8.26C9.42 8.27 9.21 8.27 8.99 8.28L9.06 8.43C9.35 8.42 9.64 8.41 9.93 8.41L9.93 8.26L9.93 8.26ZM8.08 8.35L8.06 8.35L8.05 8.35L8.05 8.35L8.05 8.35L8.04 8.35L8.04 8.35L8.04 8.35L8.03 8.35L8.03 8.35L8.03 8.35L8.02 8.35L8.01 8.35L8.01 8.35L7.97 8.35L7.97 8.35L7.96 8.35L7.96 8.35L7.95 8.35L7.95 8.35L7.94 8.35L7.94 8.35L7.94 8.35L7.93 8.35L7.93 8.35L7.92 8.35L7.92 8.35L7.91 8.35L7.91 8.35L7.9 8.35L7.9 8.35L7.89 8.35L7.89 8.35L7.89 8.35L7.89 8.35L7.88 8.35L7.87 8.35L7.86 8.35L7.86 8.35L7.85 8.35C7.63 8.4 7.42 8.43 7.21 8.46L7.42 8.6C7.68 8.56 7.95 8.53 8.22 8.5L8.08 8.35L8.08 8.35ZM6.4 8.62C6.15 8.67 5.92 8.74 5.7 8.8L5.69 8.8L5.69 8.81L5.68 8.81L5.68 8.81L5.68 8.81L5.68 8.81L5.68 8.81L5.99 8.92C6.2 8.85 6.43 8.79 6.67 8.74L6.41 8.61L6.4 8.62ZM5.04 9.04C4.85 9.11 4.68 9.19 4.51 9.29L4.91 9.37C5.07 9.28 5.23 9.2 5.4 9.13L5.04 9.03L5.04 9.04ZM4.1 9.57C4.01 9.64 3.94 9.71 3.87 9.8C3.86 9.8 3.86 9.8 3.86 9.8C3.86 9.8 3.86 9.8 3.86 9.8L3.86 9.81L3.86 9.81L3.86 9.81L3.86 9.81L3.85 9.81L3.85 9.82L3.85 9.82L3.85 9.82L3.85 9.82L3.85 9.82C3.85 9.82 3.85 9.82 3.85 9.82L3.85 9.82L3.85 9.83L4.3 9.86C4.38 9.76 4.46 9.67 4.56 9.59L4.13 9.53L4.1 9.57ZM3.68 10.16C3.67 10.19 3.67 10.22 3.67 10.25C3.67 10.25 3.67 10.25 3.67 10.25L3.67 10.25L3.67 10.25L3.67 10.26L3.67 10.26L3.67 10.26L3.67 10.26L3.67 10.29L3.67 10.3L3.67 10.3L3.67 10.3L3.67 10.3L3.67 10.3L3.67 10.31L3.67 10.31L3.67 10.31L3.67 10.31L3.67 10.31L3.67 10.31L3.67 10.32L3.67 10.32L3.67 10.32L3.67 10.32L3.67 10.32L3.67 10.32L3.67 10.33L3.67 10.33L3.67 10.33L3.67 10.33L3.67 10.33L3.67 10.33L3.67 10.33C3.67 10.33 3.67 10.34 3.67 10.34L3.67 10.34C3.67 10.36 3.67 10.39 3.67 10.41C3.67 10.42 3.67 10.42 3.67 10.42L3.67 10.42L3.67 10.42L3.67 10.43L3.67 10.43C3.67 10.43 3.68 10.44 3.68 10.45L4.14 10.44C4.12 10.34 4.12 10.25 4.15 10.15L3.68 10.14L3.68 10.16ZM4.27 10.74L3.81 10.78C3.86 10.84 3.91 10.9 3.97 10.96L3.97 10.96L3.97 10.97L3.97 10.97L3.97 10.97L3.97 10.97L3.97 10.97L3.98 10.97L3.98 10.97L3.98 10.97L3.98 10.97L3.98 10.97L3.98 10.97L3.98 10.97L3.98 10.98L3.98 10.98L3.99 10.98L3.99 10.98C3.99 10.98 3.99 10.99 3.99 10.99C4.01 11.01 4.03 11.02 4.05 11.04L4.49 10.98C4.41 10.91 4.33 10.83 4.27 10.74ZM4.89 11.27L4.48 11.35L4.51 11.36L4.51 11.36L4.52 11.37L4.52 11.37L4.52 11.37L4.52 11.37L4.52 11.37L4.52 11.37L4.52 11.37L4.53 11.37L4.53 11.37L4.53 11.37L4.53 11.37L4.53 11.37L4.54 11.37C4.62 11.42 4.72 11.46 4.81 11.51L4.82 11.51L4.82 11.51L4.82 11.51L4.83 11.51L4.83 11.51L4.83 11.51L4.83 11.51L4.84 11.51L4.84 11.51L4.84 11.51L4.84 11.51L4.84 11.51L4.84 11.51L4.84 11.51L4.84 11.51L4.85 11.51L4.85 11.51L4.85 11.51L4.85 11.51L4.85 11.51L4.85 11.51L4.86 11.52L4.86 11.52L4.87 11.52C4.9 11.54 4.94 11.55 4.98 11.57L5.35 11.47C5.18 11.4 5.02 11.33 4.87 11.24L4.89 11.27ZM5.96 11.72L5.64 11.83L5.72 11.85L5.73 11.86L5.73 11.86L5.73 11.86L5.74 11.86L5.74 11.86L5.74 11.86L5.74 11.86L5.75 11.86L5.75 11.86L5.75 11.86L5.76 11.86L5.76 11.86L5.76 11.86L5.76 11.86L5.77 11.86L5.77 11.86L5.77 11.86L5.77 11.86L5.77 11.86L5.78 11.86L5.78 11.86L5.78 11.86L5.78 11.86L5.78 11.86L5.79 11.86L5.79 11.86L5.79 11.86L5.79 11.86L5.79 11.86L5.79 11.86L5.79 11.86L5.8 11.86L5.8 11.86L5.8 11.86L5.8 11.86L5.8 11.86L5.8 11.86L5.8 11.86L5.81 11.86L5.81 11.86L5.81 11.86L5.81 11.86L5.81 11.86L5.81 11.86L5.81 11.86L5.82 11.86L5.82 11.86L5.82 11.86L5.82 11.86L5.82 11.86L5.82 11.86L5.82 11.86L5.83 11.86L5.83 11.86L5.83 11.86L5.83 11.86L5.83 11.86L5.83 11.86L5.84 11.86L5.84 11.86L5.84 11.86L5.84 11.86L5.84 11.86L5.84 11.86L5.85 11.86L5.85 11.86L5.85 11.86L5.85 11.86L5.85 11.86L5.86 11.86L5.86 11.86L5.86 11.86L5.86 11.86L5.86 11.86L5.87 11.86L5.87 11.86L5.88 11.86L5.88 11.86L5.88 11.86L5.88 11.86L5.89 11.86L5.89 11.86L5.89 11.86L5.9 11.86L5.9 11.86L5.9 11.86L5.91 11.86L5.91 11.86L5.91 11.86L5.92 11.87L5.92 11.87L5.92 11.87L5.93 11.87L5.93 11.87L5.93 11.87L5.93 11.87L5.94 11.87L5.94 11.87L5.95 11.87L5.96 11.87L5.96 11.87L5.97 11.88L5.97 11.88L5.98 11.88L5.99 11.88L5.99 11.88L6 11.88L6.01 11.89L6.01 11.89L6.02 11.89L6.02 11.89L6.03 11.89L6.03 11.89L6.04 11.89L6.04 11.9L6.05 11.9L6.05 11.9L6.05 11.9L6.06 11.9L6.06 11.9L6.06 11.9L6.07 11.9L6.07 11.9L6.08 11.9L6.08 11.9L6.08 11.9L6.08 11.9L6.09 11.9L6.09 11.9L6.1 11.9L6.1 11.9L6.1 11.9L6.11 11.9L6.11 11.9L6.11 11.9L6.11 11.9L6.12 11.9L6.12 11.9L6.12 11.9L6.12 11.9L6.13 11.9L6.13 11.9L6.13 11.9L6.13 11.9L6.18 11.9L6.18 11.9L6.18 11.9L6.18 11.9L6.19 11.9L6.19 11.9L6.19 11.9L6.19 11.9L6.19 11.9L6.2 11.9L6.2 11.9L6.2 11.9L6.2 11.9L6.2 11.9L6.21 11.9L6.21 11.9L6.21 11.9L6.21 11.9L6.21 11.9L6.21 11.9L6.21 11.9L6.22 11.9L6.22 11.9L6.22 11.9L6.23 11.9L6.23 11.9L6.23 11.9L6.23 11.9L6.23 11.9L6.23 11.9L6.23 11.9L6.24 11.9L6.24 11.9L6.24 11.9L6.24 11.9L6.24 11.9L6.25 11.9L6.25 11.9L6.25 11.9L6.25 11.9L6.25 11.9L6.25 11.9L6.26 11.9L6.26 11.9L6.26 11.9L6.26 11.9L6.27 11.9L6.27 11.9L6.27 11.9L6.27 11.9L6.28 11.9L6.28 11.9L6.28 11.9L6.28 11.9L6.29 11.9L6.29 11.9L6.29 11.9L6.29 11.9L6.3 11.9L6.3 11.9L6.3 11.9L6.31 11.9L6.31 11.9L6.31 11.9L6.32 11.91L6.32 11.91L6.33 11.91L6.35 11.91L6.61 11.79C6.38 11.73 6.15 11.67 5.94 11.61L5.96 11.72ZM7.38 12.04L7.17 12.18C7.21 12.19 7.26 12.19 7.3 12.2L7.31 12.2L7.31 12.2L7.32 12.2L7.32 12.2L7.32 12.2L7.33 12.2L7.34 12.2L7.34 12.2L7.35 12.2L7.35 12.2L7.35 12.2L7.36 12.2L7.36 12.2L7.37 12.2L7.37 12.2L7.37 12.2L7.38 12.2L7.38 12.2L7.38 12.2L7.39 12.2L7.39 12.2L7.4 12.2C7.6 12.23 7.81 12.26 8.03 12.28L8.17 12.13C7.9 12.1 7.63 12.07 7.37 12.03L7.38 12.04ZM9.02 12.21L8.95 12.36L9 12.36L9.01 12.36L9.03 12.36L9.05 12.36C9.32 12.37 9.6 12.38 9.88 12.38L9.88 12.23C9.59 12.23 9.3 12.22 9.02 12.21L9.02 12.21ZM11.59 12.15C11.31 12.18 11.03 12.2 10.74 12.22L10.81 12.37L10.9 12.36L10.91 12.36L10.91 12.36L11.09 12.36L11.09 12.36L11.1 12.36L11.11 12.36L11.11 12.36C11.32 12.35 11.52 12.33 11.72 12.31L11.59 12.15ZM13.15 11.91C12.91 11.97 12.65 12.01 12.39 12.05L12.59 12.19C12.75 12.17 12.9 12.14 13.04 12.12L13.06 12.11L13.07 12.11L13.08 12.11L13.08 12.11L13.09 12.11L13.09 12.11L13.09 12.11L13.09 12.11L13.1 12.11L13.1 12.11L13.11 12.11L13.11 12.11L13.11 12.11L13.12 12.11L13.12 12.11L13.13 12.11L13.13 12.11L13.13 12.11L13.13 12.11L13.14 12.11L13.14 12.11L13.14 12.11L13.14 12.11L13.15 12.11L13.15 12.11L13.15 12.11L13.15 12.11L13.15 12.11L13.16 12.11L13.16 12.11L13.16 12.11L13.16 12.11L13.16 12.11L13.16 12.11L13.17 12.11L13.17 12.11L13.17 12.11L13.17 12.11L13.18 12.11L13.18 12.11L13.18 12.11L13.18 12.11L13.19 12.11L13.19 12.11L13.19 12.11L13.19 12.11L13.2 12.11L13.2 12.11L13.2 12.11L13.2 12.11L13.21 12.11L13.21 12.11L13.21 12.11L13.21 12.11L13.22 12.11L13.22 12.11L13.23 12.11L13.23 12.11L13.23 12.11L13.23 12.11L13.24 12.11L13.24 12.11L13.25 12.11L13.25 12.1L13.26 12.1L13.26 12.1C13.31 12.09 13.35 12.08 13.39 12.07L13.15 11.91L13.15 11.91ZM14.42 11.53C14.24 11.6 14.04 11.67 13.83 11.74L14.14 11.85C14.37 11.78 14.59 11.71 14.78 11.63L14.42 11.53L14.42 11.53ZM15.3 11.04C15.18 11.14 15.05 11.22 14.92 11.3L15.32 11.38C15.34 11.36 15.37 11.35 15.39 11.34L15.39 11.33L15.39 11.33L15.39 11.33L15.4 11.33L15.4 11.33L15.4 11.33L15.4 11.33L15.4 11.33L15.4 11.33L15.4 11.33L15.4 11.33L15.41 11.33L15.41 11.33L15.41 11.33L15.41 11.33L15.41 11.33L15.41 11.33L15.42 11.33L15.42 11.33L15.42 11.33C15.48 11.29 15.53 11.26 15.58 11.22L15.59 11.22L15.59 11.22L15.59 11.22L15.6 11.21L15.6 11.21L15.6 11.21L15.6 11.21L15.6 11.21L15.6 11.21L15.6 11.21L15.6 11.21L15.61 11.21L15.61 11.21L15.61 11.21L15.61 11.21L15.61 11.21L15.61 11.21L15.62 11.21L15.62 11.21C15.64 11.19 15.67 11.17 15.69 11.15L15.26 11.09L15.3 11.04ZM15.7 10.49C15.67 10.59 15.63 10.69 15.56 10.77L16.02 10.81C16.04 10.78 16.06 10.74 16.08 10.71L16.08 10.71L16.08 10.71L16.08 10.71L16.08 10.7L16.08 10.7L16.08 10.7L16.08 10.7L16.08 10.7L16.08 10.7L16.08 10.7L16.08 10.69C16.08 10.69 16.08 10.69 16.08 10.69L16.08 10.69C16.08 10.69 16.08 10.69 16.08 10.69L16.09 10.69C16.11 10.64 16.13 10.59 16.15 10.53L16.15 10.53L16.15 10.53L16.15 10.53L16.15 10.53L15.68 10.51L15.7 10.49ZM16.05 9.89L15.59 9.92C15.65 10.01 15.69 10.1 15.71 10.2L16.18 10.19C16.17 10.17 16.17 10.15 16.16 10.13L16.16 10.13L16.16 10.13L16.16 10.13L16.16 10.12L16.16 10.12L16.16 10.12L16.16 10.12L16.16 10.12L16.16 10.12L16.16 10.12L16.16 10.09L16.16 10.09L16.16 10.09L16.16 10.09L16.16 10.09L16.16 10.09L16.16 10.09L16.16 10.09L16.16 10.08C16.16 10.08 16.16 10.08 16.16 10.08L16.16 10.08L16.16 10.08C16.16 10.07 16.16 10.07 16.16 10.07L16.16 10.07C16.14 10.01 16.11 9.95 16.07 9.9L16.05 9.89ZM15.39 9.32L14.98 9.39C15.11 9.47 15.23 9.55 15.35 9.65L15.79 9.59L15.76 9.57L15.75 9.57L15.75 9.57L15.75 9.56L15.75 9.56L15.75 9.56L15.75 9.56L15.75 9.56L15.75 9.56L15.75 9.56L15.74 9.56L15.74 9.56L15.74 9.55C15.63 9.47 15.51 9.39 15.39 9.32ZM14.25 8.83L13.93 8.94C14.13 9.01 14.33 9.08 14.51 9.15L14.87 9.06C14.79 9.02 14.7 8.99 14.6 8.95L14.6 8.95L14.59 8.95L14.59 8.95L14.59 8.95L14.58 8.95L14.58 8.95L14.58 8.95L14.58 8.95L14.58 8.95L14.58 8.95L14.57 8.95L14.57 8.95L14.57 8.95L14.57 8.95L14.57 8.95L14.57 8.95L14.56 8.95L14.56 8.95L14.56 8.95L14.56 8.95L14.56 8.95L14.56 8.95L14.55 8.95L14.55 8.95L14.55 8.94L14.54 8.94L14.54 8.94L14.54 8.94L14.53 8.94L14.53 8.94C14.44 8.91 14.35 8.88 14.26 8.85L14.25 8.83ZM12.72 8.48L12.51 8.62C12.77 8.66 13.02 8.71 13.26 8.76L13.53 8.64C13.4 8.61 13.27 8.58 13.13 8.55L13.13 8.55L13.12 8.55L13.1 8.55L13.09 8.55L13.09 8.54L13.08 8.54L13.07 8.54L13.07 8.54L13.06 8.54L13.04 8.54L13.03 8.54L13.03 8.53L13.02 8.53L13.01 8.53L13 8.53L12.99 8.53L12.99 8.52L12.98 8.52L12.97 8.52L12.97 8.52L12.96 8.52L12.95 8.52L12.95 8.52L12.94 8.52L12.94 8.52L12.93 8.52L12.93 8.52L12.92 8.52L12.91 8.51L12.91 8.51L12.9 8.51L12.9 8.51L12.89 8.51L12.89 8.51L12.88 8.51L12.88 8.51L12.88 8.51L12.87 8.51L12.87 8.51L12.87 8.51L12.86 8.51L12.86 8.51L12.85 8.51L12.85 8.51L12.85 8.51L12.84 8.51L12.84 8.51L12.84 8.51L12.84 8.51L12.84 8.51L12.83 8.51L12.83 8.51L12.83 8.51L12.82 8.51L12.82 8.51L12.82 8.51L12.82 8.51L12.82 8.51L12.81 8.51L12.81 8.51L12.81 8.51L12.81 8.51L12.8 8.51L12.8 8.51L12.8 8.51L12.77 8.51L12.77 8.51L12.77 8.51L12.77 8.51L12.76 8.51L12.76 8.51L12.76 8.51L12.75 8.51L12.75 8.51L12.75 8.51L12.75 8.51L12.74 8.51L12.74 8.51L12.74 8.51L12.73 8.51L12.73 8.51L12.72 8.48ZM10.95 8.29L10.88 8.44C11.16 8.46 11.44 8.48 11.72 8.51L11.86 8.36C11.8 8.36 11.74 8.35 11.68 8.34L11.67 8.34L11.66 8.34L11.66 8.34L11.61 8.34L11.61 8.34L11.6 8.34L11.6 8.34L11.59 8.34L11.58 8.34C11.38 8.33 11.17 8.31 10.95 8.3L10.95 8.29Z" fill="#FF922E" fill-opacity="1.000000" fill-rule="nonzero"/>
		<path id="Vector" d="M9.92 8.01C10.84 8 11.75 8.06 12.66 8.19C13.5 8.3 14.25 8.47 14.9 8.68C15.54 8.9 16.05 9.15 16.41 9.42C16.77 9.71 16.96 10.01 16.96 10.32C16.96 10.64 16.78 10.94 16.41 11.23C16.05 11.5 15.54 11.75 14.9 11.96C14.25 12.18 13.5 12.34 12.66 12.46C11.75 12.58 10.84 12.65 9.92 12.64C9 12.65 8.09 12.58 7.18 12.46C6.34 12.34 5.59 12.18 4.94 11.96C4.29 11.75 3.79 11.5 3.43 11.23C3.07 10.94 2.88 10.64 2.88 10.32C2.88 10.01 3.07 9.71 3.43 9.42C3.79 9.15 4.29 8.9 4.94 8.68C5.59 8.47 6.34 8.3 7.18 8.19C8.09 8.06 9 8 9.92 8L9.92 8.01ZM9.92 7.97C5.97 7.97 2.76 9.02 2.76 10.32C2.76 11.63 5.97 12.68 9.92 12.68C13.87 12.68 17.08 11.63 17.08 10.32C17.08 9.02 13.87 7.97 9.92 7.97L9.92 7.97Z" fill="#F7FAF6" fill-opacity="1.000000" fill-rule="nonzero"/>
		<path id="Vector" d="M9.92 8.15C10.78 8.15 11.64 8.2 12.49 8.32C13.28 8.43 13.99 8.58 14.59 8.78C15.2 8.99 15.68 9.22 16.01 9.48C16.36 9.75 16.53 10.03 16.53 10.32C16.53 10.62 16.35 10.9 16.01 11.17C15.68 11.43 15.2 11.66 14.59 11.86C13.99 12.06 13.28 12.22 12.49 12.33C11.64 12.45 10.78 12.5 9.92 12.5C9.06 12.5 8.2 12.45 7.35 12.33C6.56 12.22 5.85 12.06 5.25 11.86C4.64 11.66 4.16 11.43 3.83 11.17C3.48 10.9 3.31 10.62 3.31 10.32C3.31 10.03 3.48 9.75 3.83 9.48C4.16 9.22 4.64 8.98 5.24 8.78C5.85 8.59 6.56 8.43 7.35 8.32C8.2 8.2 9.06 8.15 9.92 8.15ZM9.92 8.11C6.2 8.11 3.19 9.1 3.19 10.32C3.19 11.55 6.2 12.54 9.92 12.54C13.64 12.54 16.65 11.55 16.65 10.32C16.65 9.1 13.63 8.11 9.92 8.11L9.92 8.11Z" fill="#F7FAF6" fill-opacity="1.000000" fill-rule="nonzero"/>
		<path id="Vector" d="M13.2 11.16C13.13 11.15 13.06 11.16 13 11.2L11.99 11.2L11.85 11.33C11.82 11.35 11.74 11.37 11.64 11.37L11.84 11.2L11.69 11.2L11.55 11.33C11.52 11.35 11.43 11.37 11.34 11.37L11.54 11.2L11.39 11.2L11.25 11.33C11.22 11.35 11.13 11.37 11.04 11.37L11.23 11.2L10.15 11.2L9.41 11.2C9.43 11.16 9.53 11.14 9.64 11.14L10.2 11.14L11.06 10.14L9.54 10.14C9.15 10.55 8.75 11.02 8.35 11.45C8.29 11.52 8.45 11.61 8.68 11.61C10.08 11.62 11.48 11.61 12.88 11.61C12.96 11.61 13.03 11.59 13.05 11.57L13.33 11.23C13.35 11.2 13.3 11.17 13.2 11.16Z" fill="#FF922E" fill-opacity="1.000000" fill-rule="nonzero"/>
		<path id="Vector" d="M12.01 9.04L12.01 9.04L10.45 9.04C10.31 9.04 10.19 9.08 10.19 9.13L10.96 9.13C10.92 9.16 10.83 9.18 10.73 9.18L10.43 9.18C10.3 9.33 10.17 9.47 10.03 9.61L11.51 9.61L11.93 9.13L11.97 9.13C12.04 9.13 12.1 9.11 12.11 9.09C12.12 9.06 12.07 9.04 12.01 9.04Z" fill="url(#paint_linear_0_1993_0)" fill-opacity="1.000000" fill-rule="nonzero"/>
		<path id="Vector" d="M13.25 9.78C13.25 9.77 13.25 9.77 13.24 9.76C13.16 9.46 12.38 9.23 11.46 9.23L8.8 9.23C8.58 9.23 8.39 9.28 8.31 9.35L8.1 9.51L7.87 9.51C7.71 9.51 7.56 9.54 7.46 9.58L8.78 9.58L9.12 9.58C9.29 9.58 9.41 9.63 9.39 9.69L9.08 9.97L8.93 9.97L9.23 9.7L9.13 9.7L8.84 9.97L8.65 9.97L8.95 9.7C8.46 9.7 8.06 9.69 7.57 9.69C7.45 9.69 7.34 9.71 7.29 9.74C7.27 9.76 7.25 9.77 7.24 9.79C7.22 9.82 7.29 9.84 7.36 9.84L7.37 9.84C7.45 9.83 7.49 9.81 7.49 9.81L8.34 9.81C8.34 9.83 8.29 9.85 8.22 9.85L7.77 9.85C7.16 10.45 6.72 10.89 6.54 11.02C6.37 11.16 6.52 11.21 6.65 11.23C6.71 11.24 6.77 11.25 6.83 11.25L7.96 11.25L8.7 10.53L8.48 10.53C8.36 10.53 8.27 10.49 8.27 10.45L9.52 10.45C10.05 10.7 10.59 10.95 11.12 11.2C11.63 11.2 12.14 11.19 12.65 11.19L10.88 10.41L11.46 10.41C12.34 10.41 13.1 10.2 13.23 9.92C13.25 9.87 13.26 9.82 13.25 9.78ZM8.73 10.07L8.56 10.07L8.64 9.99L8.82 9.99L8.73 10.07ZM8.97 10.07L8.84 10.07L8.92 9.99L9.05 9.99L8.97 10.07ZM9.74 10.07C9.57 10.07 9.37 10.07 9.13 10.07L9.21 9.99L9.82 9.99L9.74 10.07ZM9.23 9.97L9.52 9.71C9.77 9.71 9.98 9.71 10.13 9.71L9.84 9.97L9.23 9.97ZM10.03 10.07L9.89 10.07L9.98 9.99L10.12 9.99L10.03 10.07ZM10 9.97L10.29 9.71L10.43 9.71L10.14 9.97L10 9.97ZM10.81 10.02C10.6 10.05 10.4 10.07 10.19 10.07L10.27 9.99C10.43 9.99 10.56 9.99 10.67 9.99C10.86 9.99 10.95 9.98 11.04 9.96C11.08 9.96 11.11 9.95 11.14 9.94C11.03 9.98 10.92 10 10.81 10.02L10.81 10.02ZM11.24 9.87C11.21 9.92 11.07 9.94 10.99 9.95C10.89 9.96 10.81 9.97 10.64 9.97C10.5 9.97 10.39 9.97 10.29 9.97L10.58 9.71C10.62 9.71 10.92 9.69 11.12 9.76C11.14 9.77 11.28 9.82 11.24 9.87L11.24 9.87Z" fill="#FF922E" fill-opacity="1.000000" fill-rule="nonzero"/>
		<path id="Vector" d="M10.13 9.71C9.98 9.71 9.77 9.71 9.52 9.71L9.23 9.97L9.84 9.97L10.13 9.71ZM9.33 9.95L9.57 9.73L10.03 9.73L9.8 9.95L9.33 9.95Z" fill="#FFFFFF" fill-opacity="1.000000" fill-rule="nonzero"/>
		<path id="Vector" d="M8.84 10.07L8.97 10.07L9.05 9.99L8.92 9.99L8.84 10.07Z" fill="#FFFFFF" fill-opacity="1.000000" fill-rule="nonzero"/>
		<path id="Vector" d="M8.56 10.07L8.73 10.07L8.82 9.99L8.64 9.99L8.56 10.07ZM8.69 10.01L8.71 10.01L8.68 10.04L8.66 10.04L8.69 10.01Z" fill="#FFFFFF" fill-opacity="1.000000" fill-rule="nonzero"/>
		<path id="Vector" d="M13.32 9.78C13.32 9.77 13.32 9.77 13.31 9.76C13.27 9.61 13.06 9.47 12.72 9.37C12.37 9.27 11.93 9.21 11.47 9.21L8.8 9.21C8.55 9.21 8.33 9.26 8.24 9.34L8.14 9.42L8.05 9.49L7.87 9.49C7.69 9.49 7.51 9.52 7.4 9.57L7.32 9.6L8.78 9.6L9.12 9.61C9.17 9.61 9.22 9.61 9.27 9.63C9.3 9.64 9.32 9.66 9.32 9.68L9.08 9.68L9.07 9.69L8.79 9.95L8.75 9.95L8.86 9.85L9.01 9.71L9.05 9.68L8.95 9.68L8.26 9.67L7.57 9.67L7.56 9.67C7.42 9.67 7.29 9.69 7.23 9.73C7.2 9.75 7.18 9.77 7.17 9.79C7.16 9.81 7.17 9.82 7.21 9.84C7.25 9.85 7.3 9.86 7.35 9.86C7.36 9.86 7.37 9.86 7.37 9.86L7.38 9.86C7.43 9.86 7.48 9.85 7.53 9.83L7.72 9.83L7.71 9.84C7.59 9.96 7.48 10.07 7.37 10.17C6.94 10.6 6.62 10.91 6.48 11.01C6.27 11.17 6.48 11.23 6.62 11.25C6.69 11.27 6.76 11.27 6.83 11.27L8 11.27L8.02 11.25L8.77 10.53L8.8 10.5L8.48 10.5C8.44 10.51 8.39 10.5 8.35 10.48L9.48 10.48C9.74 10.6 10.01 10.72 10.26 10.84C10.51 10.96 10.77 11.08 11.03 11.2L11.11 11.2C10.58 10.95 10.05 10.7 9.52 10.46L8.27 10.46C8.27 10.5 8.36 10.53 8.48 10.53L8.7 10.53L7.95 11.25L6.83 11.25C6.77 11.25 6.71 11.24 6.65 11.23C6.52 11.21 6.36 11.16 6.54 11.02C6.73 10.89 7.16 10.45 7.77 9.85L8.22 9.85C8.29 9.85 8.34 9.83 8.34 9.81L7.49 9.81C7.49 9.81 7.45 9.83 7.37 9.84L7.35 9.84C7.28 9.84 7.22 9.82 7.24 9.79C7.25 9.77 7.27 9.76 7.29 9.75C7.34 9.71 7.45 9.69 7.57 9.69L7.57 9.69C8.06 9.69 8.46 9.7 8.95 9.7L8.65 9.97L8.84 9.97L9.13 9.7L9.23 9.7L8.93 9.97L9.08 9.97L9.39 9.69C9.41 9.64 9.29 9.59 9.12 9.58L8.78 9.58L7.46 9.58C7.56 9.54 7.71 9.52 7.87 9.52L8.1 9.52L8.31 9.35C8.39 9.28 8.58 9.24 8.8 9.24L11.47 9.24C12.38 9.24 13.16 9.46 13.25 9.77C13.25 9.77 13.25 9.77 13.25 9.78C13.26 9.83 13.25 9.88 13.23 9.92C13.1 10.2 12.34 10.41 11.46 10.41L10.88 10.41L12.65 11.2L12.74 11.2L12.71 11.18L11.68 10.72L11.02 10.43L11.46 10.44L11.46 10.44C11.91 10.44 12.34 10.39 12.67 10.29C13.01 10.2 13.23 10.07 13.3 9.92C13.32 9.88 13.33 9.83 13.32 9.78ZM9.32 9.68L9.29 9.71L9.29 9.71L9.32 9.68L9.32 9.68Z" fill="#FFFFFF" fill-opacity="1.000000" fill-rule="nonzero"/>
		<path id="Vector" d="M9.13 10.07L9.32 10.07L9.74 10.07L9.82 9.99L9.21 9.99L9.13 10.07ZM9.26 10.01L9.72 10.01L9.69 10.04L9.22 10.04L9.26 10.01Z" fill="#FFFFFF" fill-opacity="1.000000" fill-rule="nonzero"/>
		<path id="Vector" d="M11.14 9.94C11.11 9.95 11.07 9.96 11.04 9.96C10.95 9.98 10.86 9.99 10.67 9.99C10.61 9.99 10.54 9.99 10.47 9.99C10.41 9.99 10.34 9.99 10.27 9.99L10.19 10.07C10.4 10.07 10.6 10.05 10.81 10.02C10.92 10 11.03 9.98 11.14 9.94ZM10.29 10.04L10.32 10.01C10.37 10.01 10.42 10.02 10.47 10.02C10.54 10.02 10.61 10.02 10.67 10.01L10.69 10.01C10.56 10.03 10.42 10.04 10.29 10.04Z" fill="#FFFFFF" fill-opacity="1.000000" fill-rule="nonzero"/>
		<path id="Vector" d="M10.64 9.97C10.81 9.97 10.89 9.96 10.99 9.95C11.07 9.94 11.21 9.92 11.24 9.87C11.29 9.82 11.14 9.77 11.12 9.76C10.99 9.72 10.81 9.71 10.7 9.71C10.64 9.71 10.59 9.71 10.58 9.71L10.29 9.97C10.34 9.97 10.4 9.97 10.47 9.97C10.52 9.97 10.58 9.97 10.64 9.97ZM10.63 9.73C10.65 9.73 10.67 9.73 10.7 9.73C10.81 9.73 10.96 9.74 11.07 9.78C11.11 9.79 11.2 9.83 11.17 9.87C11.15 9.9 11.03 9.92 10.96 9.93C10.88 9.94 10.81 9.94 10.63 9.95C10.58 9.95 10.52 9.95 10.47 9.95L10.39 9.95L10.63 9.73Z" fill="#FFFFFF" fill-opacity="1.000000" fill-rule="nonzero"/>
		<path id="Vector" d="M10.42 9.71L10.28 9.71L10 9.97L10.14 9.97L10.42 9.71Z" fill="#FFFFFF" fill-opacity="1.000000" fill-rule="nonzero"/>
		<path id="Vector" d="M10.03 10.07L10.12 9.99L9.98 9.99L9.89 10.07L10.03 10.07L10.03 10.07Z" fill="#FFFFFF" fill-opacity="1.000000" fill-rule="nonzero"/>
		<path id="Vector" d="M6.89 8C7.9 7.86 8.92 7.79 9.93 7.8L9.93 7.06L9.92 7.06C8.53 7.06 7.22 7.15 6.02 7.32L6.89 8Z" fill="#F7FAF6" fill-opacity="1.000000" fill-rule="nonzero"/>
		<path id="Vector" d="M14.73 7.47L13.7 8.08C14.62 8.25 15.42 8.47 16.07 8.75L17.73 8.31C16.92 7.97 15.9 7.68 14.73 7.47Z" fill="#FFFFFF" fill-opacity="1.000000" fill-rule="nonzero"/>
		<path id="Vector" d="M0.27 11.17L0.27 12.67C0.58 13.11 1.16 13.51 1.94 13.86L1.94 12.25L0.31 11.11C0.3 11.13 0.28 11.15 0.27 11.17Z" fill="#EDE8E8" fill-opacity="1.000000" fill-rule="nonzero"/>
		<path id="Vector" d="M5.59 14.86C6.76 15.05 8.05 15.16 9.41 15.18L9.41 13.59L5.59 13.26L5.59 14.86Z" fill="#EDE8E8" fill-opacity="1.000000" fill-rule="nonzero"/>
		<path id="Vector" d="M14.35 14.84C15.57 14.64 16.64 14.36 17.5 14.02L17.5 12.54L14.35 13.32L14.35 14.84Z" fill="#EDE8E8" fill-opacity="1.000000" fill-rule="nonzero"/>
		<path id="Vector" d="M19.84 11.92C19.84 11.92 19.84 11.91 19.84 11.91L19.84 10.23L19.71 10.23L19.57 11.08L19.57 12.67C19.74 12.43 19.84 12.18 19.84 11.92Z" fill="#EDE8E8" fill-opacity="1.000000" fill-rule="nonzero"/>
		<path id="Vector" d="M17.72 10.33C17.72 10.53 17.65 10.72 17.51 10.92L19.57 11.08C19.74 10.83 19.84 10.58 19.84 10.32C19.83 10.13 19.79 9.95 19.7 9.78L17.61 9.89C17.68 10.03 17.72 10.18 17.72 10.33Z" fill="#FFFFFF" fill-opacity="1.000000" fill-rule="nonzero"/>
		<path id="Vector" d="M17.5 12.54L15.92 12.07C15.22 12.33 14.39 12.54 13.44 12.69L14.35 13.32C15.56 13.13 16.63 12.86 17.5 12.54Z" fill="#FFFFFF" fill-opacity="1.000000" fill-rule="nonzero"/>
		<path id="Vector" d="M5.59 13.26C6.76 13.45 8.05 13.56 9.42 13.59L9.53 12.89C8.52 12.87 7.52 12.79 6.52 12.63L5.59 13.26Z" fill="#FFFFFF" fill-opacity="1.000000" fill-rule="nonzero"/>
		<path id="Vector" d="M0.27 11.08C0.58 11.51 1.15 11.91 1.92 12.25L3.6 11.86C2.99 11.57 2.56 11.26 2.34 10.93L0.27 11.08Z" fill="#FFFFFF" fill-opacity="1.000000" fill-rule="nonzero"/>
		<path id="Vector" d="M0.34 9.47L2.43 9.67C2.72 9.34 3.19 9.03 3.85 8.76L2.13 8.3C1.31 8.65 0.7 9.04 0.34 9.47Z" fill="#FFFFFF" fill-opacity="1.000000" fill-rule="nonzero"/>
		<path id="Vector" d="M6.89 8C7.9 7.86 8.92 7.79 9.93 7.8L9.93 7.06L9.92 7.06C8.53 7.06 7.22 7.15 6.02 7.32L6.89 8Z" fill="#FFFFFF" fill-opacity="1.000000" fill-rule="nonzero"/>
		<path id="Vector" d="M20.61 7.66L19.2 7.68C17.46 6.73 14.3 6.09 10.69 6.09C6.9 6.09 3.6 6.79 1.93 7.82L0.77 7.83L0.77 9.35C0.77 9.35 0.77 9.35 0.77 9.36C0.77 11.16 5.21 12.62 10.69 12.62C16.17 12.62 20.61 11.16 20.61 9.36C20.61 9.35 20.61 9.35 20.61 9.35L20.61 7.66Z" fill="url(#paint_linear_0_2016_0)" fill-opacity="1.000000" fill-rule="nonzero"/>
		<path id="Vector" d="M10.69 11.03C16.17 11.03 20.61 9.57 20.61 7.76C20.61 5.96 16.17 4.49 10.69 4.49C5.21 4.49 0.77 5.96 0.77 7.76C0.77 9.57 5.21 11.03 10.69 11.03Z" fill="#FF922E" fill-opacity="1.000000" fill-rule="nonzero"/>
		<path id="Vector" d="M10.69 9.77C14.05 9.77 16.78 8.87 16.78 7.76C16.78 6.65 14.05 5.75 10.69 5.75C7.32 5.75 4.6 6.65 4.6 7.76C4.6 8.87 7.32 9.77 10.69 9.77Z" fill="#FFFFFF" fill-opacity="1.000000" fill-rule="nonzero"/>
		<path id="Vector" d="M10.7 5.7L10.41 5.7C10.19 5.7 9.98 5.71 9.76 5.72L9.83 5.87C10.12 5.86 10.41 5.85 10.7 5.85L10.7 5.7L10.7 5.7ZM8.85 5.79L8.83 5.79L8.82 5.79L8.82 5.79L8.82 5.79L8.81 5.79L8.8 5.79L8.8 5.79L8.8 5.79L8.79 5.79L8.79 5.79L8.79 5.79L8.78 5.79L8.77 5.79L8.74 5.79L8.74 5.79L8.73 5.79L8.73 5.79L8.72 5.79L8.72 5.79L8.71 5.79L8.7 5.79L8.7 5.79L8.7 5.79L8.69 5.79L8.69 5.79L8.68 5.79L8.68 5.79L8.68 5.79L8.67 5.79L8.67 5.79L8.66 5.79L8.66 5.79L8.66 5.79L8.65 5.79L8.65 5.79L8.64 5.79L8.63 5.79L8.63 5.79L8.62 5.79C8.4 5.82 8.19 5.85 7.98 5.88L8.19 6.02C8.45 5.98 8.72 5.94 8.99 5.91L8.85 5.77L8.85 5.79ZM7.17 6.05C6.92 6.11 6.69 6.17 6.47 6.24L6.46 6.24L6.46 6.24L6.45 6.24L6.45 6.24L6.45 6.24L6.45 6.24L6.44 6.24L6.76 6.35C6.97 6.29 7.2 6.23 7.44 6.18L7.18 6.05L7.17 6.05ZM5.81 6.47C5.62 6.54 5.45 6.63 5.28 6.72L5.68 6.8C5.84 6.71 6 6.64 6.17 6.57L5.81 6.47L5.81 6.47ZM4.87 7C4.78 7.07 4.7 7.15 4.64 7.24L4.63 7.24L4.63 7.24L4.63 7.24L4.63 7.25L4.63 7.25L4.62 7.25L4.62 7.25L4.62 7.25L4.62 7.25L4.62 7.26L4.62 7.26L4.62 7.26L4.62 7.26L5.07 7.3C5.15 7.2 5.23 7.11 5.33 7.03L4.9 6.97L4.87 7ZM4.45 7.6C4.44 7.63 4.44 7.66 4.44 7.68C4.44 7.68 4.44 7.69 4.44 7.69L4.44 7.69L4.44 7.69L4.44 7.69L4.44 7.69L4.44 7.69L4.44 7.7L4.44 7.73L4.44 7.73L4.44 7.74L4.44 7.74L4.44 7.74L4.44 7.74L4.44 7.74L4.44 7.74L4.44 7.75L4.44 7.76L4.44 7.76L4.44 7.76L4.44 7.76L4.44 7.76L4.44 7.76L4.44 7.77L4.44 7.77L4.44 7.77L4.44 7.77L4.44 7.77L4.44 7.77C4.44 7.77 4.44 7.78 4.44 7.78L4.44 7.78C4.44 7.8 4.44 7.83 4.44 7.85L4.44 7.86C4.44 7.86 4.44 7.86 4.44 7.86L4.44 7.86L4.44 7.86L4.44 7.87L4.44 7.87C4.44 7.88 4.45 7.88 4.45 7.89L4.91 7.88C4.9 7.83 4.9 7.79 4.9 7.74C4.9 7.69 4.9 7.64 4.92 7.59L4.45 7.58L4.45 7.6ZM5.04 8.18L4.58 8.21C4.63 8.28 4.68 8.34 4.73 8.4L4.74 8.4L4.74 8.4L4.74 8.4L4.74 8.41L4.74 8.41L4.74 8.41L4.74 8.41L4.74 8.41L4.74 8.41L4.75 8.41L4.75 8.41L4.75 8.41L4.75 8.42L4.75 8.42L4.75 8.42L4.76 8.42L4.76 8.43C4.78 8.44 4.8 8.46 4.82 8.48L5.26 8.42C5.16 8.34 5.08 8.25 5.01 8.15L5.04 8.18ZM5.66 8.71L5.25 8.78L5.28 8.8L5.28 8.8L5.29 8.8L5.29 8.8L5.29 8.8L5.29 8.8L5.29 8.8L5.29 8.8L5.3 8.8L5.3 8.8L5.3 8.8L5.3 8.8L5.3 8.8L5.3 8.8L5.31 8.81L5.31 8.81C5.4 8.85 5.49 8.9 5.59 8.95L5.59 8.95L5.59 8.95L5.6 8.95L5.6 8.95L5.6 8.95L5.6 8.95L5.6 8.95L5.61 8.95L5.61 8.95L5.61 8.95L5.61 8.95L5.61 8.95L5.61 8.95L5.61 8.95L5.62 8.95L5.62 8.95L5.62 8.95L5.62 8.95L5.62 8.95L5.63 8.96L5.63 8.96L5.64 8.96C5.67 8.98 5.71 8.99 5.75 9.01L6.14 8.94C5.98 8.87 5.82 8.8 5.66 8.71L5.66 8.71ZM6.73 9.15L6.41 9.27L6.49 9.29L6.5 9.29L6.5 9.29L6.5 9.29L6.51 9.29L6.51 9.29L6.51 9.29L6.51 9.29L6.52 9.3L6.52 9.3L6.52 9.3L6.53 9.3L6.53 9.3L6.53 9.3L6.53 9.3L6.54 9.3L6.54 9.3L6.54 9.3L6.54 9.3L6.54 9.3L6.55 9.3L6.55 9.3L6.55 9.3L6.55 9.3L6.55 9.3L6.56 9.3L6.56 9.3L6.56 9.3L6.56 9.3L6.56 9.3L6.56 9.3L6.56 9.3L6.57 9.3L6.57 9.3L6.57 9.3L6.57 9.3L6.57 9.3L6.57 9.3L6.58 9.3L6.58 9.3L6.58 9.3L6.58 9.3L6.58 9.3L6.58 9.3L6.58 9.3L6.59 9.3L6.59 9.3L6.59 9.3L6.59 9.3L6.59 9.3L6.59 9.3L6.59 9.3L6.6 9.3L6.6 9.3L6.6 9.3L6.6 9.3L6.6 9.3L6.6 9.3L6.6 9.3L6.6 9.3L6.61 9.3L6.61 9.3L6.61 9.3L6.61 9.3L6.61 9.3L6.62 9.3L6.62 9.3L6.62 9.3L6.62 9.3L6.62 9.3L6.63 9.3L6.63 9.3L6.63 9.3L6.63 9.3L6.63 9.3L6.64 9.3L6.64 9.3L6.65 9.3L6.65 9.3L6.65 9.3L6.65 9.3L6.66 9.3L6.66 9.3L6.67 9.3L6.67 9.3L6.67 9.3L6.67 9.3L6.67 9.3L6.68 9.3L6.68 9.3L6.69 9.3L6.69 9.3L6.69 9.3L6.7 9.3L6.7 9.3L6.7 9.3L6.71 9.3L6.71 9.31L6.72 9.31L6.73 9.31L6.73 9.31L6.74 9.31L6.74 9.31L6.75 9.32L6.76 9.32L6.76 9.32L6.77 9.32L6.78 9.32L6.78 9.32L6.79 9.33L6.79 9.33L6.8 9.33L6.8 9.33L6.81 9.33L6.81 9.33L6.82 9.33L6.82 9.33L6.82 9.33L6.82 9.33L6.83 9.33L6.83 9.33L6.84 9.33L6.84 9.34L6.84 9.34L6.85 9.34L6.85 9.34L6.85 9.34L6.85 9.34L6.86 9.34L6.86 9.34L6.87 9.34L6.87 9.34L6.87 9.34L6.87 9.34L6.88 9.34L6.88 9.34L6.88 9.34L6.89 9.34L6.89 9.34L6.89 9.34L6.89 9.34L6.9 9.34L6.9 9.34L6.95 9.34L6.95 9.34L6.95 9.34L6.95 9.34L6.96 9.34L6.96 9.34L6.96 9.34L6.96 9.34L6.96 9.34L6.97 9.34L6.97 9.34L6.97 9.34L6.97 9.34L6.97 9.34L6.97 9.34L6.98 9.34L6.98 9.34L6.98 9.34L6.98 9.34L6.98 9.34L6.98 9.34L6.99 9.34L6.99 9.34L6.99 9.34L6.99 9.34L6.99 9.34L6.99 9.34L7 9.34L7 9.34L7 9.34L7 9.34L7 9.34L7 9.34L7.01 9.34L7.01 9.34L7.01 9.34L7.01 9.34L7.02 9.34L7.02 9.34L7.02 9.34L7.02 9.34L7.02 9.34L7.02 9.34L7.03 9.34L7.03 9.34L7.03 9.34L7.03 9.34L7.03 9.34L7.04 9.34L7.04 9.34L7.04 9.34L7.04 9.34L7.05 9.34L7.05 9.34L7.05 9.34L7.05 9.34L7.02 9.35L7.06 9.34L7.03 9.35L7.04 9.36L7.05 9.37L7.04 9.37L7.04 9.38L7.08 9.38L7.39 9.22C7.15 9.17 7.03 9.18 6.82 9.11L6.73 9.15ZM8.15 9.48L7.94 9.61C7.98 9.62 8.03 9.63 8.07 9.64L8.08 9.64L8.08 9.64L8.09 9.64L8.09 9.64L8.09 9.64L8.1 9.64L8.11 9.64L8.11 9.64L8.12 9.64L8.12 9.64L8.12 9.64L8.13 9.64L8.13 9.64L8.13 9.64L8.14 9.64L8.14 9.64L8.14 9.64L8.15 9.64L8.15 9.64L8.15 9.64L8.16 9.64L8.16 9.64L8.17 9.64C8.37 9.67 8.58 9.69 8.8 9.71L8.94 9.57C8.67 9.54 8.4 9.5 8.14 9.46L8.15 9.48ZM9.79 9.65L9.72 9.8L9.77 9.8L9.78 9.8L9.79 9.8L9.8 9.8L9.82 9.8C10.09 9.81 10.37 9.82 10.65 9.82L10.65 9.67C10.36 9.67 10.07 9.66 9.79 9.64L9.79 9.65ZM12.36 9.59C12.08 9.62 11.8 9.64 11.51 9.65L11.58 9.8L11.67 9.8L11.68 9.8L11.68 9.8L11.7 9.8L11.7 9.8L11.84 9.8L11.86 9.8L11.86 9.8L11.87 9.8L11.88 9.8L11.88 9.8C12.09 9.79 12.29 9.77 12.49 9.75L12.36 9.6L12.36 9.59ZM13.92 9.35C13.68 9.4 13.42 9.45 13.17 9.49L13.36 9.63C13.52 9.61 13.67 9.58 13.81 9.55L13.84 9.55L13.84 9.55L13.85 9.55L13.85 9.55L13.86 9.55L13.86 9.55L13.86 9.55L13.86 9.55L13.87 9.55L13.87 9.55L13.88 9.55L13.88 9.55L13.88 9.55L13.89 9.55L13.89 9.55L13.9 9.55L13.9 9.55L13.9 9.55L13.9 9.55L13.91 9.55L13.91 9.55L13.91 9.55L13.91 9.55L13.92 9.55L13.92 9.55L13.92 9.55L13.92 9.55L13.92 9.55L13.92 9.55L13.93 9.55L13.93 9.55L13.93 9.55L13.93 9.55L13.94 9.55L13.94 9.55L13.94 9.55L13.94 9.55L13.94 9.55L13.95 9.55L13.95 9.55L13.95 9.55L13.95 9.55L13.96 9.55L13.96 9.55L13.96 9.55L13.96 9.55L13.97 9.55L13.97 9.55L13.97 9.55L13.97 9.55L13.98 9.55L13.98 9.55L13.98 9.55L13.99 9.55L13.99 9.55L13.99 9.55L14 9.55L14 9.55L14 9.55L14 9.55L14.01 9.55L14.01 9.54L14.02 9.54L14.02 9.54L14.03 9.54C14.07 9.53 14.12 9.52 14.16 9.51L13.92 9.35L13.92 9.35ZM15.19 8.97C15.01 9.04 14.81 9.11 14.6 9.17L14.91 9.29C15.14 9.22 15.36 9.14 15.56 9.06L15.19 8.97L15.19 8.97ZM16.07 8.48C15.95 8.57 15.82 8.66 15.69 8.73L16.09 8.81C16.11 8.8 16.14 8.79 16.16 8.77L16.16 8.77L16.16 8.77L16.16 8.77L16.17 8.77L16.17 8.77L16.17 8.77L16.17 8.77L16.17 8.77L16.17 8.77L16.17 8.77L16.18 8.77L16.18 8.77L16.18 8.77L16.18 8.77L16.18 8.77L16.18 8.77L16.2 8.75L16.21 8.74C16.26 8.71 16.32 8.67 16.37 8.64L16.37 8.64L16.37 8.63L16.38 8.63L16.38 8.63L16.38 8.63L16.38 8.63L16.38 8.63L16.39 8.63L16.39 8.63L16.39 8.63L16.39 8.63L16.39 8.63L16.39 8.63L16.39 8.63L16.39 8.63L16.4 8.63L16.4 8.63L16.4 8.63L16.4 8.62L16.4 8.62C16.43 8.6 16.45 8.58 16.48 8.56L16.04 8.51L16.07 8.48ZM16.47 7.93C16.44 8.03 16.4 8.12 16.33 8.21L16.79 8.24C16.81 8.21 16.83 8.18 16.85 8.15L16.85 8.14L16.85 8.14L16.85 8.14L16.85 8.14L16.85 8.14L16.85 8.14L16.85 8.14L16.85 8.14C16.85 8.13 16.85 8.13 16.85 8.13L16.85 8.13L16.85 8.13L16.85 8.13C16.88 8.08 16.9 8.03 16.91 7.97L16.91 7.97L16.91 7.97L16.91 7.97L16.91 7.97L16.91 7.97L16.91 7.96L16.45 7.95L16.47 7.93ZM16.82 7.33L16.36 7.36C16.42 7.44 16.46 7.54 16.48 7.64L16.95 7.63C16.94 7.61 16.94 7.59 16.93 7.57L16.93 7.57L16.93 7.56L16.93 7.56L16.93 7.56L16.93 7.56L16.93 7.56L16.93 7.55L16.93 7.54L16.93 7.54L16.93 7.54L16.93 7.53L16.93 7.53L16.93 7.53L16.93 7.53L16.93 7.53C16.93 7.53 16.93 7.53 16.93 7.52L16.93 7.52L16.93 7.52C16.93 7.52 16.93 7.52 16.93 7.52C16.93 7.52 16.93 7.52 16.93 7.52C16.91 7.46 16.88 7.4 16.84 7.35L16.82 7.33ZM16.16 6.75L15.75 6.83C15.88 6.9 16 6.99 16.12 7.09L16.56 7.03L16.52 7.01L16.52 7L16.52 7L16.52 7L16.52 7L16.52 7L16.52 7L16.52 7L16.51 7L16.51 7L16.51 7L16.51 7L16.51 7L16.5 7C16.4 6.92 16.29 6.84 16.18 6.78L16.16 6.75ZM15.02 6.27L14.69 6.38C14.9 6.44 15.1 6.52 15.27 6.59L15.64 6.5C15.56 6.46 15.47 6.42 15.37 6.39L15.37 6.39L15.36 6.39L15.36 6.38L15.36 6.38L15.35 6.38L15.35 6.38L15.35 6.38L15.35 6.38L15.35 6.38L15.34 6.38L15.34 6.38L15.34 6.38L15.34 6.38L15.34 6.38L15.34 6.38L15.33 6.38L15.33 6.38L15.33 6.38L15.33 6.38L15.33 6.38L15.33 6.38L15.32 6.38L15.32 6.38L15.32 6.38L15.31 6.38L15.31 6.38L15.31 6.38L15.3 6.38L15.3 6.38C15.21 6.35 15.12 6.32 15.03 6.29L15.02 6.27ZM13.49 5.91L13.28 6.05C13.54 6.09 13.79 6.14 14.03 6.2L14.29 6.07C14.17 6.04 14.04 6.02 13.9 5.99L13.9 5.99L13.89 5.99L13.87 5.98L13.86 5.98L13.86 5.98L13.85 5.98L13.84 5.98L13.83 5.98L13.83 5.97L13.81 5.97L13.8 5.97L13.79 5.97L13.79 5.97L13.78 5.97L13.77 5.96L13.77 5.96L13.76 5.96L13.75 5.96L13.74 5.96L13.74 5.96L13.73 5.96L13.72 5.96L13.72 5.96L13.71 5.96L13.71 5.96L13.7 5.96L13.7 5.96L13.69 5.96L13.68 5.96L13.68 5.96L13.67 5.96L13.67 5.95L13.66 5.95L13.66 5.95L13.65 5.95L13.65 5.95L13.65 5.95L13.64 5.95L13.64 5.95L13.64 5.95L13.64 5.95L13.63 5.95L13.62 5.95L13.62 5.95L13.62 5.95L13.62 5.95L13.61 5.95L13.61 5.95L13.61 5.95L13.6 5.95L13.6 5.95L13.6 5.95L13.6 5.95L13.59 5.95L13.59 5.95L13.59 5.95L13.59 5.95L13.59 5.95L13.58 5.95L13.58 5.95L13.58 5.95L13.58 5.95L13.57 5.95L13.57 5.95L13.57 5.95L13.56 5.95L13.56 5.95L13.56 5.95L13.55 5.95L13.55 5.95L13.55 5.95L13.55 5.95L13.54 5.95L13.52 5.95L13.52 5.95L13.52 5.95L13.51 5.95L13.51 5.95L13.51 5.95L13.5 5.95L13.5 5.95L13.49 5.91ZM11.72 5.73L11.64 5.88C11.93 5.89 12.21 5.92 12.48 5.94L12.63 5.8C12.57 5.79 12.51 5.79 12.45 5.78L12.44 5.78L12.43 5.78L12.43 5.78L12.38 5.78L12.38 5.78L12.37 5.78L12.37 5.78L12.36 5.78L12.35 5.78C12.15 5.76 11.94 5.75 11.72 5.73L11.72 5.73Z" fill="#FF922E" fill-opacity="1.000000" fill-rule="nonzero"/>
		<path id="Vector" d="M10.69 5.44C11.61 5.44 12.52 5.5 13.43 5.62C14.27 5.74 15.02 5.91 15.67 6.12C16.31 6.33 16.82 6.58 17.18 6.86C17.54 7.14 17.73 7.45 17.73 7.76C17.73 8.07 17.54 8.38 17.18 8.66C16.82 8.94 16.31 9.19 15.67 9.4C15.02 9.61 14.27 9.78 13.43 9.9C12.52 10.02 11.61 10.08 10.69 10.08C9.77 10.08 8.86 10.02 7.95 9.9C7.11 9.78 6.36 9.61 5.71 9.4C5.06 9.19 4.56 8.94 4.2 8.66C3.83 8.38 3.65 8.07 3.65 7.76C3.65 7.45 3.83 7.14 4.2 6.86C4.56 6.58 5.06 6.33 5.71 6.12C6.36 5.91 7.11 5.74 7.95 5.62C8.86 5.5 9.77 5.44 10.69 5.44ZM10.69 5.4C6.74 5.4 3.53 6.46 3.53 7.76C3.53 9.06 6.74 10.12 10.69 10.12C14.64 10.12 17.85 9.06 17.85 7.76C17.85 6.46 14.64 5.4 10.69 5.4Z" fill="#F7FAF6" fill-opacity="1.000000" fill-rule="nonzero"/>
		<path id="Vector" d="M10.69 5.58C11.55 5.58 12.41 5.64 13.26 5.75C14.05 5.86 14.76 6.02 15.36 6.22C15.97 6.42 16.45 6.65 16.78 6.91C17.12 7.18 17.3 7.47 17.3 7.76C17.3 8.06 17.12 8.34 16.78 8.61C16.45 8.87 15.97 9.1 15.36 9.3C14.76 9.5 14.05 9.66 13.26 9.77C12.41 9.88 11.55 9.94 10.69 9.94C9.83 9.94 8.97 9.88 8.12 9.77C7.33 9.66 6.62 9.5 6.01 9.3C5.41 9.1 4.93 8.87 4.6 8.61C4.25 8.34 4.08 8.06 4.08 7.76C4.08 7.47 4.25 7.18 4.6 6.91C4.93 6.65 5.41 6.42 6.01 6.22C6.62 6.02 7.33 5.86 8.12 5.75C8.97 5.64 9.83 5.58 10.69 5.58L10.69 5.58ZM10.69 5.55C6.97 5.55 3.96 6.54 3.96 7.76C3.96 8.98 6.97 9.98 10.69 9.98C14.41 9.98 17.42 8.99 17.42 7.76C17.42 6.54 14.4 5.55 10.69 5.55Z" fill="#F7FAF6" fill-opacity="1.000000" fill-rule="nonzero"/>
		<path id="Vector" d="M13.97 8.6C13.9 8.59 13.83 8.6 13.77 8.63L12.76 8.63L12.62 8.76C12.59 8.79 12.51 8.81 12.41 8.81L12.61 8.63L12.46 8.63L12.32 8.76C12.29 8.79 12.2 8.81 12.11 8.81L12.31 8.63L12.16 8.63L12.02 8.76C11.99 8.79 11.9 8.81 11.81 8.81L12 8.63L10.92 8.63L10.18 8.63C10.2 8.6 10.3 8.58 10.41 8.58L10.97 8.58L11.83 7.57L10.31 7.57C9.91 7.99 9.52 8.46 9.12 8.89C9.06 8.96 9.22 9.05 9.45 9.05C10.85 9.05 12.25 9.04 13.65 9.05C13.73 9.05 13.8 9.03 13.82 9L14.1 8.67C14.12 8.64 14.07 8.61 13.97 8.6Z" fill="#FF922E" fill-opacity="1.000000" fill-rule="nonzero"/>
		<path id="Vector" d="M12.77 6.48L11.22 6.48C11.07 6.48 10.95 6.51 10.95 6.56L11.73 6.56C11.69 6.6 11.6 6.62 11.5 6.62L11.2 6.62C11.07 6.76 10.93 6.91 10.8 7.05L12.28 7.05L12.7 6.56L12.74 6.56C12.81 6.56 12.87 6.55 12.88 6.52C12.88 6.5 12.84 6.48 12.77 6.48Z" fill="url(#paint_linear_0_2023_0)" fill-opacity="1.000000" fill-rule="nonzero"/>
		<path id="Vector" d="M14.02 7.21C14.02 7.21 14.02 7.21 14.01 7.2C13.93 6.9 13.15 6.67 12.23 6.67L9.57 6.67C9.35 6.67 9.15 6.72 9.08 6.79L8.87 6.95L8.64 6.95C8.48 6.95 8.33 6.98 8.23 7.02L9.55 7.02L9.89 7.02C10.06 7.02 10.18 7.07 10.16 7.13L9.85 7.41L9.7 7.41L10 7.14L9.9 7.14L9.61 7.41L9.42 7.41L9.72 7.14C9.23 7.13 8.83 7.13 8.34 7.13C8.22 7.13 8.11 7.15 8.06 7.18C8.04 7.19 8.02 7.21 8.01 7.23C7.99 7.25 8.06 7.28 8.13 7.27L8.14 7.27C8.22 7.27 8.26 7.24 8.26 7.24L9.11 7.24C9.11 7.26 9.06 7.28 8.99 7.28L8.54 7.28C7.93 7.89 7.49 8.32 7.31 8.46C7.13 8.59 7.29 8.65 7.42 8.67C7.48 8.68 7.54 8.68 7.6 8.68L8.72 8.68L9.47 7.96L9.25 7.96C9.13 7.96 9.04 7.93 9.04 7.89L10.29 7.89C10.82 8.14 11.35 8.39 11.89 8.63C12.4 8.63 12.91 8.63 13.42 8.63L11.65 7.84L12.23 7.85C13.11 7.85 13.87 7.64 14 7.35C14.02 7.31 14.03 7.26 14.02 7.21ZM9.5 7.5L9.33 7.5L9.41 7.43L9.58 7.43L9.5 7.5ZM9.74 7.5L9.61 7.5L9.69 7.43L9.82 7.43L9.74 7.5ZM10.51 7.5C10.34 7.5 10.14 7.5 9.9 7.5L9.98 7.43L10.59 7.43L10.51 7.5ZM10 7.41L10.29 7.14C10.54 7.14 10.75 7.15 10.9 7.15L10.61 7.41L10 7.41ZM10.8 7.5L10.66 7.5L10.75 7.43L10.89 7.43L10.8 7.5ZM10.77 7.41L11.06 7.15L11.2 7.15L10.91 7.41L10.77 7.41ZM11.58 7.46C11.37 7.49 11.17 7.5 10.96 7.5L11.04 7.43C11.2 7.43 11.33 7.43 11.44 7.43C11.63 7.42 11.72 7.42 11.81 7.4C11.85 7.4 11.88 7.39 11.91 7.38C11.8 7.41 11.69 7.44 11.58 7.46L11.58 7.46ZM12.01 7.31C11.98 7.35 11.84 7.38 11.76 7.39C11.66 7.4 11.58 7.4 11.41 7.41C11.27 7.41 11.16 7.41 11.06 7.41L11.35 7.15C11.39 7.14 11.69 7.13 11.89 7.2C11.91 7.21 12.05 7.26 12.01 7.31L12.01 7.31Z" fill="#FF922E" fill-opacity="1.000000" fill-rule="nonzero"/>
		<path id="Vector" d="M10.9 7.15C10.75 7.15 10.54 7.15 10.29 7.14L10 7.41L10.61 7.41L10.9 7.15ZM10.1 7.38L10.34 7.17L10.8 7.17L10.56 7.38L10.1 7.38Z" fill="#FFFFFF" fill-opacity="1.000000" fill-rule="nonzero"/>
		<path id="Vector" d="M9.61 7.5L9.74 7.5L9.82 7.43L9.69 7.43L9.61 7.5Z" fill="#FFFFFF" fill-opacity="1.000000" fill-rule="nonzero"/>
		<path id="Vector" d="M9.33 7.5L9.5 7.5L9.58 7.43L9.41 7.43L9.33 7.5ZM9.46 7.45L9.48 7.45L9.45 7.48L9.43 7.48L9.46 7.45Z" fill="#FFFFFF" fill-opacity="1.000000" fill-rule="nonzero"/>
		<path id="Vector" d="M14.09 7.21C14.09 7.21 14.09 7.2 14.08 7.2C14.04 7.05 13.83 6.91 13.49 6.81C13.14 6.7 12.7 6.65 12.23 6.65L9.57 6.65C9.32 6.65 9.1 6.7 9.01 6.78L8.91 6.86L8.82 6.93L8.64 6.93C8.46 6.93 8.28 6.96 8.17 7L8.09 7.04L9.55 7.04L9.89 7.04C9.94 7.04 9.99 7.05 10.04 7.07C10.08 7.08 10.09 7.1 10.09 7.11L9.85 7.11L9.84 7.13L9.56 7.38L9.52 7.38L9.63 7.28L9.78 7.14L9.82 7.11L9.72 7.11L9.03 7.11L8.34 7.1L8.33 7.1C8.19 7.1 8.06 7.13 8 7.17C7.97 7.18 7.95 7.2 7.94 7.22C7.93 7.24 7.94 7.26 7.98 7.28C8.02 7.29 8.07 7.3 8.12 7.3C8.13 7.3 8.13 7.3 8.14 7.3L8.15 7.3C8.2 7.3 8.25 7.29 8.3 7.27L8.49 7.27L8.48 7.28C8.36 7.39 8.25 7.51 8.14 7.61C7.71 8.03 7.39 8.34 7.25 8.45C7.04 8.61 7.25 8.67 7.39 8.69C7.46 8.7 7.53 8.71 7.6 8.71L8.78 8.71L8.79 8.69L9.54 7.97L9.57 7.94L9.25 7.94C9.21 7.94 9.16 7.93 9.12 7.92L10.25 7.92C10.51 8.04 10.78 8.16 11.03 8.28C11.28 8.39 11.54 8.51 11.79 8.63L11.88 8.63C11.35 8.39 10.82 8.14 10.29 7.89L9.03 7.89C9.03 7.93 9.13 7.96 9.25 7.96L9.47 7.96L8.72 8.68L7.6 8.68C7.54 8.68 7.48 8.68 7.42 8.67C7.29 8.65 7.13 8.6 7.31 8.46C7.5 8.32 7.93 7.89 8.54 7.29L8.99 7.29C9.06 7.29 9.11 7.27 9.11 7.24L8.26 7.24C8.26 7.25 8.22 7.27 8.14 7.27L8.12 7.27C8.05 7.27 7.99 7.25 8.01 7.23C8.02 7.21 8.04 7.19 8.06 7.18C8.11 7.15 8.22 7.13 8.34 7.13L8.34 7.13C8.83 7.13 9.23 7.13 9.72 7.14L9.42 7.41L9.61 7.41L9.9 7.14L10 7.14L9.7 7.41L9.85 7.41L10.16 7.13C10.18 7.07 10.06 7.02 9.89 7.02L9.55 7.02L8.23 7.02C8.33 6.98 8.48 6.95 8.64 6.95L8.87 6.95L9.08 6.79C9.15 6.72 9.35 6.67 9.57 6.67L12.23 6.67C13.15 6.67 13.93 6.9 14.02 7.2C14.02 7.21 14.02 7.21 14.02 7.22C14.03 7.26 14.02 7.31 14 7.36C13.87 7.64 13.11 7.85 12.23 7.85L11.65 7.84L13.42 8.63L13.51 8.63L13.48 8.62L12.45 8.16L11.79 7.87L12.23 7.87L12.23 7.87C12.68 7.87 13.1 7.82 13.44 7.73C13.78 7.63 14 7.5 14.07 7.36C14.09 7.31 14.1 7.26 14.09 7.21ZM10.09 7.12L10.06 7.15L10.06 7.14L10.09 7.12L10.09 7.12Z" fill="#FFFFFF" fill-opacity="1.000000" fill-rule="nonzero"/>
		<path id="Vector" d="M9.9 7.5L10.09 7.5L10.51 7.5L10.59 7.43L9.98 7.43L9.9 7.5ZM10.03 7.45L10.49 7.45L10.46 7.48L10 7.48L10.03 7.45Z" fill="#FFFFFF" fill-opacity="1.000000" fill-rule="nonzero"/>
		<path id="Vector" d="M11.91 7.38C11.88 7.39 11.84 7.4 11.81 7.4C11.72 7.42 11.63 7.42 11.44 7.43C11.38 7.43 11.31 7.43 11.24 7.43C11.18 7.43 11.11 7.43 11.04 7.43L10.96 7.5C11.16 7.5 11.37 7.49 11.58 7.46C11.69 7.44 11.8 7.41 11.91 7.38ZM11.06 7.48L11.09 7.45C11.14 7.45 11.19 7.45 11.24 7.45C11.31 7.45 11.38 7.45 11.44 7.45L11.46 7.45C11.33 7.47 11.19 7.48 11.06 7.48Z" fill="#FFFFFF" fill-opacity="1.000000" fill-rule="nonzero"/>
		<path id="Vector" d="M11.41 7.41C11.58 7.4 11.66 7.4 11.76 7.39C11.84 7.37 11.98 7.35 12.01 7.31C12.05 7.26 11.91 7.21 11.89 7.2C11.76 7.15 11.58 7.14 11.46 7.14C11.41 7.14 11.36 7.15 11.35 7.15L11.06 7.41C11.11 7.41 11.17 7.41 11.23 7.41C11.29 7.41 11.35 7.41 11.41 7.41ZM11.4 7.17C11.42 7.17 11.44 7.17 11.47 7.17C11.58 7.17 11.73 7.18 11.84 7.21C11.88 7.23 11.97 7.27 11.94 7.3C11.92 7.34 11.8 7.35 11.73 7.37C11.65 7.38 11.57 7.38 11.4 7.38C11.35 7.38 11.29 7.39 11.24 7.39L11.16 7.39L11.4 7.17Z" fill="#FFFFFF" fill-opacity="1.000000" fill-rule="nonzero"/>
		<path id="Vector" d="M11.19 7.15L11.05 7.15L10.77 7.41L10.91 7.41L11.19 7.15Z" fill="#FFFFFF" fill-opacity="1.000000" fill-rule="nonzero"/>
		<path id="Vector" d="M10.8 7.5L10.89 7.43L10.75 7.43L10.66 7.5L10.8 7.5Z" fill="#FFFFFF" fill-opacity="1.000000" fill-rule="nonzero"/>
		<path id="Vector" d="M7.66 5.44C8.67 5.3 9.69 5.23 10.7 5.23L10.7 4.5L10.69 4.5C9.3 4.5 7.99 4.59 6.79 4.76L7.66 5.44Z" fill="#F7FAF6" fill-opacity="1.000000" fill-rule="nonzero"/>
		<path id="Vector" d="M15.5 4.91L14.47 5.52C15.39 5.69 16.19 5.91 16.84 6.18L18.5 5.75C17.69 5.41 16.67 5.12 15.5 4.91Z" fill="#FFFFFF" fill-opacity="1.000000" fill-rule="nonzero"/>
		<path id="Vector" d="M1.04 8.6L1.04 10.11C1.35 10.54 1.93 10.95 2.71 11.29L2.71 9.69L1.08 8.54C1.07 8.56 1.05 8.58 1.04 8.6Z" fill="#EDE8E8" fill-opacity="1.000000" fill-rule="nonzero"/>
		<path id="Vector" d="M6.36 12.3C7.53 12.48 8.82 12.6 10.18 12.62L10.18 11.02L6.36 10.7L6.36 12.3Z" fill="#EDE8E8" fill-opacity="1.000000" fill-rule="nonzero"/>
		<path id="Vector" d="M15.12 12.28C16.34 12.08 17.41 11.8 18.27 11.46L18.27 9.97L15.12 10.75L15.12 12.28Z" fill="#EDE8E8" fill-opacity="1.000000" fill-rule="nonzero"/>
		<path id="Vector" d="M20.61 9.36C20.61 9.35 20.61 9.35 20.61 9.35L20.61 7.66L20.48 7.67L20.34 8.51L20.34 10.11C20.51 9.87 20.61 9.61 20.61 9.36Z" fill="#EDE8E8" fill-opacity="1.000000" fill-rule="nonzero"/>
		<path id="Vector" d="M18.49 7.76C18.49 7.96 18.42 8.16 18.28 8.35L20.34 8.51C20.51 8.27 20.61 8.02 20.61 7.76C20.6 7.57 20.56 7.38 20.47 7.21L18.38 7.33C18.45 7.46 18.49 7.61 18.49 7.76Z" fill="#FFFFFF" fill-opacity="1.000000" fill-rule="nonzero"/>
		<path id="Vector" d="M18.27 9.97L16.69 9.51C15.99 9.77 15.16 9.98 14.21 10.12L15.12 10.75C16.33 10.57 17.4 10.3 18.27 9.97Z" fill="#FFFFFF" fill-opacity="1.000000" fill-rule="nonzero"/>
		<path id="Vector" d="M6.36 10.7C7.53 10.89 8.82 11 10.18 11.02L10.29 10.32C9.29 10.31 8.29 10.23 7.3 10.07L6.36 10.7Z" fill="#FFFFFF" fill-opacity="1.000000" fill-rule="nonzero"/>
		<path id="Vector" d="M1.04 8.51C1.35 8.95 1.92 9.34 2.69 9.69L4.37 9.29C3.76 9.01 3.33 8.7 3.1 8.36L1.04 8.51Z" fill="#FFFFFF" fill-opacity="1.000000" fill-rule="nonzero"/>
		<path id="Vector" d="M1.11 6.91L3.2 7.1C3.49 6.77 3.96 6.47 4.62 6.2L2.9 5.74C2.08 6.08 1.47 6.48 1.11 6.91Z" fill="#FFFFFF" fill-opacity="1.000000" fill-rule="nonzero"/>
		<path id="Vector" d="M7.66 5.44C8.67 5.3 9.69 5.23 10.7 5.23L10.7 4.5L10.69 4.5C9.3 4.5 7.99 4.59 6.79 4.76L7.66 5.44Z" fill="#FFFFFF" fill-opacity="1.000000" fill-rule="nonzero"/>
		<path id="Vector" d="M28 14.6C28.02 14.58 28.04 14.55 28.05 14.53L29.09 13.18L28.82 13.01C29.74 9.97 27.63 6.25 23.8 4.42C20.7 2.93 17.34 3.09 15.22 4.6L15.07 4.51L14.29 5.44C14.26 5.48 14.22 5.52 14.19 5.56L14.18 5.58C13.94 5.87 13.73 6.2 13.57 6.54C12.05 9.69 14.17 13.86 18.31 15.85C22.01 17.62 26.07 17.04 27.97 14.64L28 14.6Z" fill="url(#paint_linear_0_2046_0)" fill-opacity="1.000000" fill-rule="nonzero"/>
		<path id="Vector" d="M29.24 12.89C30.75 9.74 28.63 5.57 24.49 3.59C20.36 1.6 15.77 2.55 14.26 5.71C12.74 8.87 14.87 13.03 19 15.02C23.14 17 27.72 16.05 29.24 12.89Z" fill="#FF922E" fill-opacity="1.000000" fill-rule="nonzero"/>
		<path id="Vector" d="M26.35 11.51C27.28 9.57 25.97 7.01 23.43 5.79C20.89 4.57 18.08 5.16 17.15 7.09C16.21 9.03 17.52 11.59 20.06 12.81C22.6 14.03 25.42 13.45 26.35 11.51Z" fill="#FFFFFF" fill-opacity="1.000000" fill-rule="nonzero"/>
		<path id="Vector" d="M17.02 7.03L17.02 7.03L17.02 7.03L17.02 7.04L17.02 7.04L17.02 7.04L17.02 7.04L17.02 7.04L17.02 7.04L17.02 7.05L17.02 7.05L17.02 7.05L17.02 7.05L17.02 7.05L17.02 7.05L17.02 7.06L17.02 7.06L17.02 7.06L17.02 7.06L17.02 7.06L17.02 7.06L17.02 7.07L17.02 7.07L17.02 7.07L17.02 7.07L17.02 7.07L17.02 7.07L17.02 7.08L17.02 7.08L17.02 7.08L17.02 7.08L17.02 7.08L17.02 7.08L17.02 7.08L17.02 7.09L17.02 7.09L17.02 7.09L17.02 7.09L17.02 7.09L17.02 7.09L17.02 7.09L17.02 7.1L17.02 7.1L17.02 7.1L17.02 7.1L17.02 7.1L17.02 7.1L17.02 7.1L17.02 7.11L17.02 7.11L17.02 7.11L17.02 7.11L17.02 7.11L17.02 7.11L17.02 7.12L17.02 7.12L17.01 7.12L17.01 7.12L17.01 7.13L17.01 7.13L17.01 7.13L17.01 7.13L17.01 7.14L17.01 7.14L17.01 7.14L17.01 7.15C17.01 7.15 17.01 7.15 17 7.15C16.95 7.28 16.91 7.41 16.87 7.55L17.24 7.67C17.29 7.5 17.35 7.32 17.43 7.15L17.02 7.03ZM16.72 8.19C16.72 8.2 16.72 8.2 16.72 8.21L16.72 8.21C16.72 8.21 16.72 8.21 16.72 8.21L16.72 8.22L16.72 8.22L16.72 8.22L16.72 8.22L16.72 8.23L16.72 8.24L16.72 8.29L16.72 8.29L16.72 8.31L16.72 8.31L16.72 8.31L16.72 8.31L16.72 8.31L16.72 8.32L16.72 8.32L16.72 8.32L16.72 8.32L16.72 8.33L16.72 8.33L16.72 8.34C16.72 8.34 16.72 8.34 16.72 8.34L16.72 8.35C16.72 8.35 16.72 8.35 16.72 8.35C16.71 8.51 16.72 8.66 16.74 8.82L17.11 8.85C17.09 8.66 17.08 8.47 17.1 8.27L16.72 8.19L16.72 8.19ZM16.86 9.45C16.92 9.66 17 9.86 17.09 10.06L17.09 10.07L17.09 10.07L17.09 10.07L17.09 10.08L17.09 10.08L17.09 10.08L17.09 10.08L17.44 10.02C17.35 9.83 17.28 9.64 17.22 9.44L16.85 9.45L16.86 9.45ZM17.44 10.7C17.57 10.9 17.71 11.1 17.87 11.28L18.16 11.13C18.02 10.96 17.88 10.78 17.76 10.59L17.44 10.7ZM18.39 11.82C18.54 11.96 18.7 12.09 18.87 12.21L18.87 12.22L18.88 12.22L18.88 12.22L18.89 12.23L18.89 12.23L18.89 12.23L18.9 12.24L18.9 12.24L18.9 12.24L18.91 12.24L18.91 12.24L18.91 12.25L18.91 12.25L18.91 12.25L18.91 12.25C18.91 12.25 18.92 12.25 18.92 12.25L18.92 12.25L18.92 12.25L18.92 12.25L18.92 12.25L18.92 12.25L18.93 12.26L18.93 12.26L18.93 12.26L18.93 12.26L18.93 12.26L18.93 12.26L18.93 12.26L18.94 12.26L18.94 12.26L18.94 12.26L18.94 12.26L18.94 12.27L18.94 12.27L18.95 12.27C18.95 12.27 18.95 12.27 18.95 12.27L18.95 12.27L18.96 12.27L18.96 12.28L19.17 12.06C18.99 11.92 18.81 11.78 18.64 11.63L18.39 11.82L18.39 11.82ZM19.65 12.72C19.71 12.75 19.77 12.79 19.84 12.82L19.84 12.82L19.85 12.83L19.85 12.83L19.86 12.83L19.86 12.83L19.86 12.83L19.86 12.83L19.87 12.83L19.87 12.83L19.87 12.83L19.87 12.83L19.87 12.84L19.87 12.84L19.88 12.84L19.88 12.84L19.88 12.84L19.88 12.84L19.88 12.84L19.88 12.84L19.89 12.84L19.89 12.84L19.89 12.84L19.89 12.84L19.89 12.84L19.89 12.84L19.89 12.84L19.9 12.84L19.9 12.84L19.9 12.84L19.9 12.84L19.9 12.84L19.9 12.84L19.91 12.84L19.91 12.84L19.91 12.84L19.91 12.84L19.91 12.84L19.91 12.84L19.92 12.84L19.92 12.84L19.92 12.84L19.92 12.84L19.92 12.84L19.93 12.84L19.93 12.84L19.93 12.84L19.93 12.84L19.93 12.84L19.94 12.84L19.94 12.84L19.94 12.85L19.94 12.85L19.95 12.85L19.95 12.85L19.95 12.85L19.95 12.85L19.95 12.85L19.96 12.85L19.96 12.86L19.96 12.86L19.96 12.86L19.97 12.86L19.97 12.86L19.97 12.86L19.97 12.86L19.98 12.86L19.98 12.86L19.98 12.87L19.98 12.87L19.99 12.87L19.99 12.87L19.99 12.87L19.99 12.87L19.99 12.87L20 12.87L20 12.87L20 12.87L20 12.87L20 12.87L20.01 12.87L20.01 12.87L20.01 12.88L20.01 12.88L20.02 12.88L20.02 12.88L20.02 12.88L20.02 12.88L20.02 12.88L20.03 12.88L20.03 12.88L20.04 12.88L20.05 12.89L20.05 12.89C20.11 12.92 20.17 12.94 20.23 12.97L20.23 12.97L20.23 12.97L20.24 12.97L20.24 12.97L20.24 12.97L20.24 12.97L20.24 12.97L20.25 12.97L20.25 12.97L20.25 12.97L20.25 12.97L20.26 12.97L20.3 12.99L20.41 12.71C20.3 12.67 20.2 12.62 20.09 12.57C19.98 12.52 19.87 12.46 19.76 12.4L19.65 12.72ZM21.14 13.02L21.09 13.32C21.25 13.36 21.4 13.4 21.56 13.43L21.56 13.44L21.57 13.44L21.58 13.44L21.58 13.44L21.58 13.44L21.58 13.44L21.59 13.44L21.59 13.44L21.59 13.44L21.59 13.44L21.6 13.44L21.6 13.44L21.6 13.44L21.6 13.44L21.61 13.44L21.61 13.44L21.61 13.44L21.61 13.44L21.62 13.44L21.62 13.44L21.62 13.44L21.62 13.44L21.63 13.44L21.63 13.44L21.64 13.44L21.64 13.44L21.64 13.44L21.65 13.44L21.65 13.44L21.65 13.44L21.66 13.44L21.66 13.44L21.66 13.44L21.66 13.44L21.67 13.44L21.67 13.44L21.68 13.44L21.68 13.44L21.7 13.44C21.74 13.45 21.79 13.46 21.83 13.47L21.83 13.17C21.6 13.14 21.37 13.08 21.14 13.02L21.14 13.02ZM22.52 13.24L22.59 13.56C22.6 13.56 22.61 13.56 22.63 13.56L22.69 13.56C22.83 13.56 22.96 13.56 23.09 13.55L23.09 13.55L23.1 13.55L23.11 13.55L23.12 13.55L23.16 13.55L23.17 13.55L23.17 13.55C23.22 13.55 23.27 13.55 23.32 13.54L23.2 13.23C22.97 13.25 22.75 13.25 22.52 13.25L22.52 13.24ZM23.88 13.2L24.01 13.42C24.04 13.42 24.06 13.41 24.09 13.4L24.1 13.4L24.1 13.4L24.1 13.4L24.11 13.4L24.11 13.4L24.11 13.4L24.11 13.4L24.12 13.4L24.12 13.4L24.12 13.4L24.13 13.4L24.13 13.4L24.13 13.4L24.13 13.4L24.13 13.4L24.14 13.4L24.14 13.4L24.14 13.4L24.14 13.4L24.14 13.4L24.15 13.4L24.15 13.4L24.15 13.4L24.15 13.4L24.15 13.4L24.15 13.4L24.16 13.4L24.16 13.4L24.16 13.4L24.16 13.4L24.16 13.4L24.16 13.4L24.17 13.4L24.17 13.4L24.17 13.4L24.17 13.4L24.17 13.4L24.17 13.4L24.17 13.4L24.18 13.4L24.18 13.4L24.18 13.4L24.18 13.4L24.18 13.4L24.18 13.4L24.19 13.4L24.19 13.4L24.19 13.4L24.19 13.4L24.19 13.4L24.2 13.4L24.2 13.4L24.2 13.4L24.2 13.4L24.2 13.4L24.2 13.4L24.2 13.4L24.21 13.4L24.21 13.4L24.21 13.4L24.21 13.4L24.21 13.4L24.22 13.4L24.22 13.4L24.22 13.4L24.23 13.4L24.23 13.4L24.23 13.4L24.23 13.4L24.24 13.4L24.24 13.4L24.24 13.4L24.25 13.39L24.25 13.39L24.25 13.39L24.25 13.39L24.26 13.39L24.26 13.39L24.26 13.39L24.27 13.39L24.27 13.39L24.27 13.39L24.27 13.39L24.28 13.39L24.28 13.39L24.28 13.39L24.29 13.39L24.29 13.39L24.3 13.39L24.31 13.38L24.31 13.38L24.32 13.38L24.32 13.38L24.33 13.38L24.33 13.38L24.34 13.37L24.35 13.37L24.35 13.37L24.36 13.37L24.36 13.37L24.36 13.37L24.37 13.36L24.37 13.36L24.38 13.36L24.38 13.36L24.38 13.36L24.39 13.36L24.39 13.36L24.39 13.36L24.39 13.36L24.4 13.36L24.4 13.36L24.4 13.36L24.41 13.36L24.41 13.36L24.41 13.36L24.41 13.36L24.42 13.35L24.42 13.35L24.42 13.35L24.43 13.35L24.43 13.35L24.43 13.35L24.43 13.35L24.43 13.35L24.44 13.35L24.44 13.35L24.44 13.35L24.44 13.35L24.45 13.35L24.45 13.35L24.45 13.35L24.45 13.35L24.45 13.35L24.45 13.35L24.45 13.35L24.46 13.35L24.46 13.35L24.46 13.35L24.46 13.35L24.46 13.35L24.46 13.35L24.46 13.35L24.47 13.35L24.47 13.35L24.47 13.35L24.47 13.35L24.47 13.35L24.47 13.35L24.47 13.35L24.48 13.35L24.48 13.35L24.48 13.35L24.48 13.35L24.48 13.35L24.48 13.35L24.49 13.35L24.49 13.35L24.49 13.35L24.49 13.35L24.49 13.35L24.49 13.35L24.5 13.35L24.5 13.35L24.5 13.35L24.5 13.35L24.5 13.35L24.51 13.35L24.51 13.35L24.51 13.35L24.51 13.35L24.51 13.35L24.52 13.35L24.52 13.35L24.52 13.35L24.52 13.35L24.52 13.35L24.53 13.35L24.53 13.35L24.53 13.35L24.54 13.35L24.54 13.35L24.54 13.35L24.54 13.35L24.55 13.35L24.55 13.34L24.57 13.34L24.35 13.04C24.16 13.12 24.08 13.16 23.88 13.2ZM24.98 12.66L25.24 12.93C25.26 12.91 25.29 12.89 25.32 12.87L25.32 12.87L25.33 12.87L25.33 12.87L25.33 12.86L25.33 12.86L25.33 12.86L25.34 12.86L25.34 12.86L25.34 12.86L25.34 12.86L25.34 12.86L25.34 12.86L25.34 12.86L25.35 12.86L25.35 12.86L25.35 12.86L25.35 12.86L25.35 12.86L25.35 12.86L25.36 12.85L25.36 12.85L25.37 12.85C25.49 12.76 25.61 12.67 25.72 12.57L25.42 12.33C25.28 12.45 25.13 12.56 24.98 12.65L24.98 12.66ZM25.82 11.9L26.15 12.11L26.15 12.1L26.15 12.1L26.15 12.1L26.15 12.1L26.16 12.1L26.16 12.1L26.16 12.09L26.16 12.09L26.16 12.09L26.16 12.09L26.17 12.08L26.17 12.08L26.17 12.08L26.17 12.08L26.17 12.07L26.17 12.07L26.18 12.06C26.28 11.92 26.38 11.76 26.45 11.61L26.1 11.43C26.02 11.6 25.92 11.76 25.81 11.91L25.82 11.9ZM26.4 10.35C26.39 10.54 26.36 10.72 26.31 10.91L26.68 11.04C26.68 11.02 26.69 11 26.69 10.98L26.69 10.98L26.69 10.97L26.69 10.97L26.69 10.97C26.69 10.97 26.69 10.96 26.69 10.96L26.69 10.96L26.69 10.96L26.69 10.96L26.69 10.95L26.69 10.95L26.69 10.95L26.69 10.95L26.69 10.94L26.69 10.94L26.69 10.94L26.69 10.94L26.69 10.93L26.69 10.93L26.69 10.93L26.69 10.92L26.69 10.92L26.69 10.92L26.69 10.91L26.69 10.91L26.69 10.91L26.69 10.91L26.69 10.9L26.69 10.9L26.69 10.9L26.69 10.89L26.69 10.89L26.69 10.89L26.69 10.89L26.69 10.89L26.69 10.89L26.69 10.88L26.69 10.88L26.69 10.87L26.69 10.87L26.69 10.87L26.69 10.87L26.69 10.86L26.69 10.86L26.69 10.85L26.69 10.85L26.69 10.84C26.72 10.71 26.74 10.57 26.75 10.44L26.4 10.35ZM26.28 9.19C26.33 9.38 26.37 9.58 26.39 9.78L26.77 9.81C26.76 9.7 26.74 9.59 26.71 9.47C26.71 9.46 26.71 9.46 26.71 9.45C26.71 9.45 26.71 9.45 26.71 9.45C26.71 9.45 26.71 9.45 26.71 9.44C26.71 9.44 26.71 9.44 26.71 9.44L26.71 9.44L26.71 9.43L26.71 9.43L26.71 9.43L26.71 9.43L26.71 9.42L26.71 9.42L26.71 9.42L26.71 9.41L26.71 9.41L26.71 9.41L26.71 9.41L26.71 9.41L26.71 9.4L26.71 9.4L26.71 9.4L26.71 9.4L26.71 9.39L26.71 9.39L26.71 9.39L26.71 9.38L26.71 9.38L26.71 9.38L26.71 9.38L26.71 9.37L26.71 9.37L26.71 9.37L26.71 9.37L26.71 9.36L26.71 9.36L26.71 9.36L26.71 9.36L26.71 9.36L26.71 9.35L26.71 9.35L26.71 9.35L26.71 9.35L26.71 9.35L26.71 9.34L26.71 9.34L26.71 9.34L26.71 9.34L26.71 9.34L26.71 9.33L26.71 9.33C26.71 9.33 26.71 9.33 26.71 9.33L26.71 9.33L26.71 9.32L26.71 9.32L26.71 9.32L26.71 9.32L26.71 9.31C26.71 9.31 26.71 9.31 26.71 9.31C26.71 9.31 26.71 9.31 26.71 9.31L26.71 9.3C26.71 9.3 26.71 9.3 26.71 9.3C26.7 9.26 26.69 9.23 26.68 9.19L26.32 9.2L26.28 9.19ZM25.76 8.03C25.87 8.22 25.98 8.41 26.07 8.6L26.41 8.55C26.32 8.33 26.21 8.13 26.08 7.93L25.76 8.03L25.76 8.03ZM24.88 6.99C25.05 7.15 25.21 7.31 25.36 7.49L25.65 7.34C25.63 7.32 25.6 7.29 25.58 7.26L25.58 7.26L25.58 7.26L25.57 7.25L25.57 7.25L25.57 7.25L25.57 7.25L25.57 7.25L25.57 7.25L25.57 7.25L25.57 7.24L25.57 7.24L25.57 7.24L25.56 7.24L25.56 7.24L25.56 7.24L25.56 7.23L25.56 7.23L25.56 7.23L25.55 7.23L25.55 7.23L25.55 7.23L25.55 7.22L25.55 7.22L25.54 7.22L25.54 7.21C25.48 7.14 25.41 7.07 25.34 7.01L25.34 7L25.34 7L25.33 6.99L25.33 6.99L25.33 6.99L25.32 6.99L25.32 6.98L25.32 6.98L25.32 6.98L25.32 6.98L25.31 6.98L25.31 6.98L25.31 6.97L25.31 6.97L25.31 6.97L25.31 6.97L25.31 6.97L25.3 6.96L25.3 6.96L25.3 6.96L25.3 6.96L25.3 6.96L25.3 6.96L25.3 6.96L25.3 6.96L25.29 6.95L25.29 6.95L25.29 6.95L25.29 6.95L25.29 6.95L25.28 6.94C25.28 6.94 25.28 6.94 25.28 6.94C25.24 6.9 25.21 6.87 25.17 6.84L24.88 6.99ZM23.72 6.15C23.93 6.27 24.14 6.4 24.33 6.54L24.54 6.32C24.47 6.27 24.4 6.22 24.34 6.17L24.33 6.17L24.33 6.17L24.33 6.17L24.32 6.17L24.32 6.17L24.32 6.17L24.32 6.17L24.32 6.16L24.31 6.16L24.31 6.16L24.31 6.16L24.31 6.16L24.31 6.16L24.31 6.16L24.31 6.16L24.3 6.16L24.3 6.16L24.3 6.16L24.3 6.16L24.3 6.16L24.29 6.16L24.29 6.15L24.29 6.15L24.29 6.15L24.27 6.13L24.27 6.13L24.26 6.13L24.26 6.12L24.25 6.12L24.25 6.12L24.24 6.11C24.14 6.04 24.02 5.98 23.91 5.91L23.9 5.91L23.9 5.91L23.9 5.91L23.9 5.9L23.89 5.9L23.89 5.9L23.89 5.9L23.89 5.9L23.73 6.15L23.72 6.15ZM22.45 5.29L22.39 5.59C22.63 5.66 22.85 5.74 23.07 5.83L23.18 5.55C23.13 5.53 23.08 5.51 23.03 5.49L23.03 5.49L23.02 5.49L23.02 5.48L23.02 5.48L23.01 5.48L23.01 5.48L23.01 5.48L23.01 5.48L23 5.48L23 5.48L23 5.48L23 5.48L22.99 5.48L22.99 5.48L22.99 5.48L22.99 5.48L22.99 5.48L22.98 5.48L22.98 5.48L22.98 5.48L22.98 5.48L22.98 5.48L22.98 5.48L22.98 5.48L22.97 5.48L22.97 5.48L22.97 5.48L22.97 5.48L22.97 5.48L22.97 5.48L22.97 5.48L22.96 5.48L22.96 5.48L22.96 5.48L22.96 5.48L22.96 5.48L22.96 5.48L22.95 5.48L22.95 5.48L22.95 5.48L22.95 5.48L22.95 5.48L22.95 5.48L22.94 5.48L22.94 5.48L22.94 5.48L22.94 5.48L22.93 5.48L22.93 5.48L22.93 5.48L22.93 5.48L22.92 5.48L22.92 5.48L22.92 5.48L22.92 5.48L22.91 5.48L22.91 5.47L22.9 5.47L22.9 5.47L22.89 5.47L22.86 5.43L22.86 5.43C22.72 5.38 22.58 5.33 22.45 5.29L22.45 5.29ZM20.95 5.04L21.01 5.36C21.24 5.37 21.47 5.39 21.7 5.43L21.7 5.12L21.63 5.11L21.62 5.11L21.62 5.11L21.62 5.11L21.62 5.11L21.61 5.11L21.61 5.11L21.61 5.11L21.56 5.11L21.56 5.11L21.56 5.11L21.55 5.11L21.55 5.11L21.54 5.11C21.34 5.08 21.15 5.06 20.95 5.05L20.95 5.04ZM19.52 5.17L19.69 5.47C19.9 5.42 20.12 5.39 20.33 5.37L20.22 5.06C20.11 5.06 20 5.08 19.9 5.09L19.89 5.09L19.89 5.09L19.88 5.09L19.88 5.09L19.83 5.09L19.83 5.09L19.82 5.09L19.82 5.09L19.82 5.09L19.81 5.09L19.81 5.09L19.81 5.09L19.8 5.09C19.71 5.11 19.61 5.13 19.52 5.15L19.52 5.17ZM18.29 5.66L18.55 5.93C18.72 5.82 18.9 5.73 19.09 5.66L18.87 5.37C18.77 5.41 18.67 5.45 18.57 5.5L18.57 5.5L18.56 5.5L18.55 5.51L18.54 5.51L18.54 5.52L18.54 5.52L18.53 5.52L18.52 5.52L18.52 5.53L18.5 5.54L18.5 5.54L18.5 5.54L18.49 5.54L18.48 5.55L18.48 5.55L18.48 5.55L18.47 5.55L18.47 5.55L18.46 5.56L18.46 5.56L18.45 5.56L18.45 5.57L18.44 5.57L18.44 5.57L18.44 5.57L18.43 5.57L18.43 5.58L18.42 5.58L18.42 5.58L18.41 5.58L18.41 5.58L18.41 5.59L18.4 5.59L18.4 5.59L18.4 5.59L18.4 5.59L18.39 5.59L18.39 5.59L18.39 5.6L18.39 5.6L18.39 5.6L18.38 5.6L18.38 5.6L18.38 5.6L18.37 5.6L18.37 5.6L18.37 5.6L18.37 5.6L18.37 5.6L18.36 5.6L18.36 5.6L18.36 5.6L18.36 5.6L18.36 5.6L18.36 5.6L18.36 5.6L18.35 5.6L18.35 5.6L18.35 5.61L18.35 5.61L18.35 5.61L18.35 5.61L18.34 5.61L18.34 5.61L18.34 5.61L18.34 5.61L18.34 5.61L18.34 5.61L18.34 5.61L18.33 5.61L18.33 5.61L18.33 5.61L18.33 5.61L18.33 5.61L18.33 5.61L18.32 5.61L18.32 5.61L18.32 5.61L18.29 5.66ZM17.37 6.47L17.69 6.68C17.81 6.53 17.94 6.39 18.08 6.27L17.78 6.02C17.75 6.05 17.72 6.08 17.69 6.11L17.69 6.11L17.68 6.11L17.68 6.12L17.68 6.12L17.68 6.12L17.68 6.12L17.68 6.12L17.68 6.12L17.68 6.12L17.68 6.12L17.68 6.13L17.68 6.13L17.67 6.13L17.67 6.13L17.67 6.13L17.67 6.14L17.66 6.14L17.66 6.14C17.56 6.24 17.47 6.34 17.38 6.46L17.37 6.47Z" fill="#FF922E" fill-opacity="1.000000" fill-rule="nonzero"/>
		<path id="Vector" d="M16.43 6.75C16.69 6.2 17.09 5.74 17.61 5.37C18.11 5.02 18.7 4.77 19.36 4.63C20.03 4.49 20.74 4.47 21.47 4.57C23.02 4.79 24.47 5.48 25.61 6.56C26.15 7.06 26.58 7.63 26.88 8.24C27.19 8.84 27.37 9.46 27.4 10.07C27.44 10.71 27.33 11.3 27.06 11.85C26.8 12.4 26.4 12.86 25.89 13.23C25.39 13.59 24.79 13.84 24.13 13.97C23.46 14.11 22.75 14.13 22.02 14.03C20.47 13.81 19.02 13.12 17.88 12.05C17.35 11.54 16.92 10.98 16.61 10.37C16.3 9.76 16.12 9.14 16.09 8.53C16.05 7.9 16.17 7.3 16.43 6.75L16.43 6.75ZM16.34 6.71C15.25 8.99 16.78 12 19.76 13.43C22.75 14.86 26.06 14.17 27.15 11.9C28.25 9.62 26.71 6.61 23.73 5.18C20.74 3.75 17.43 4.43 16.34 6.71L16.34 6.71Z" fill="#F7FAF6" fill-opacity="1.000000" fill-rule="nonzero"/>
		<path id="Vector" d="M16.75 6.91C17 6.39 17.37 5.96 17.86 5.61C18.33 5.28 18.88 5.04 19.51 4.91C20.14 4.78 20.8 4.77 21.49 4.86C22.95 5.07 24.3 5.72 25.38 6.72C25.88 7.2 26.28 7.73 26.57 8.3C26.86 8.87 27.03 9.45 27.06 10.03C27.09 10.62 26.99 11.18 26.74 11.7C26.49 12.21 26.12 12.65 25.63 12.99C25.17 13.33 24.61 13.56 23.98 13.69C23.36 13.82 22.69 13.84 22 13.75C20.55 13.54 19.19 12.89 18.12 11.88C17.61 11.4 17.21 10.87 16.92 10.3C16.63 9.73 16.47 9.15 16.43 8.58C16.4 7.98 16.51 7.42 16.75 6.91L16.75 6.91ZM16.67 6.87C15.64 9.01 17.08 11.83 19.88 13.18C22.69 14.53 25.8 13.88 26.83 11.74C27.86 9.6 26.42 6.77 23.61 5.42C20.8 4.08 17.7 4.72 16.67 6.87L16.67 6.87Z" fill="#F7FAF6" fill-opacity="1.000000" fill-rule="nonzero"/>
		<path id="Vector" d="M24.57 8.33C24.54 8.36 24.53 8.41 24.6 8.48L24.32 9.07L24.58 9.29C24.63 9.34 24.66 9.41 24.63 9.46L24.28 9.16L24.24 9.24L24.49 9.46C24.55 9.51 24.57 9.58 24.55 9.64L24.19 9.33L24.15 9.41L24.41 9.64C24.47 9.69 24.49 9.76 24.46 9.81L24.11 9.5L23.81 10.13L23.61 10.56C23.54 10.5 23.51 10.42 23.54 10.36L23.69 10.04L21.64 8.44L21.22 9.32C22.06 10 23.02 10.75 23.89 11.44C24.04 11.56 24.29 11.56 24.35 11.43C24.75 10.63 25.12 9.81 25.52 9.01C25.54 8.97 25.52 8.91 25.47 8.87L24.78 8.34C24.71 8.29 24.62 8.28 24.57 8.33Z" fill="#FF922E" fill-opacity="1.000000" fill-rule="nonzero"/>
		<path id="Vector" d="M19.38 6.69L19.38 6.68L19.37 6.7L18.98 7.51L18.94 7.58C18.9 7.66 18.96 7.77 19.07 7.83L19.15 7.66L19.28 7.38C19.35 7.44 19.37 7.51 19.35 7.58C19.32 7.64 19.3 7.69 19.27 7.75L20.14 8.45L20.56 7.6L19.55 6.82L19.57 6.8C19.58 6.76 19.56 6.71 19.52 6.68C19.47 6.65 19.41 6.65 19.38 6.69Z" fill="#FF922E" fill-opacity="1.000000" fill-rule="nonzero"/>
		<path id="Vector" d="M21.42 6.78L21.39 6.77C20.67 6.49 19.93 6.68 19.68 7.21L19.57 7.44L18.94 8.75C18.88 8.87 18.93 9.04 19.06 9.16L19.39 9.46L19.32 9.59C19.28 9.69 19.29 9.8 19.36 9.9L19.73 9.14C19.76 9.08 19.79 9.01 19.83 8.95C19.88 8.85 20.03 8.84 20.14 8.91L20.7 9.4L20.66 9.48L20.12 9.01L20.1 9.07L20.63 9.54L20.58 9.64L20.04 9.18C19.9 9.45 19.78 9.68 19.64 9.96C19.61 10.02 19.63 10.11 19.69 10.18C19.72 10.21 19.75 10.24 19.78 10.26C19.84 10.3 19.91 10.29 19.92 10.24C19.92 10.24 19.92 10.24 19.92 10.24C19.94 10.18 19.89 10.14 19.89 10.13L19.92 10.07L19.98 9.94L20.12 9.64C20.17 9.67 20.2 9.72 20.18 9.76L20.06 10.01C21.27 11.03 22.15 11.76 22.41 12.01C22.67 12.26 22.84 12.24 22.92 12.19C22.96 12.16 22.99 12.13 23 12.1L23.32 11.45L21.87 10.22L21.81 10.35C21.78 10.42 21.68 10.44 21.59 10.4L21.73 10.1L21.93 9.67C22.65 9.64 23.37 9.61 24.08 9.57C24.22 9.28 24.36 8.98 24.5 8.68L22.2 8.84L22.38 8.51C22.62 8 22.35 7.34 21.73 6.95C21.63 6.88 21.53 6.83 21.42 6.78ZM20.83 9.7L20.78 9.8L20.63 9.67L20.67 9.57L20.83 9.7ZM20.89 9.56L20.86 9.64L20.71 9.51L20.74 9.43L20.89 9.56ZM21.11 9.12C21.06 9.22 21 9.34 20.93 9.48L20.78 9.34L20.95 8.99L21.11 9.12ZM20.74 9.31L20.22 8.85C20.29 8.71 20.35 8.59 20.4 8.5L20.91 8.95L20.74 9.31ZM21.19 8.95L21.17 9L21.15 9.03L21 8.9L21.04 8.82L21.19 8.95ZM20.96 8.87L20.44 8.42L20.48 8.34L20.99 8.79L20.96 8.87ZM21.3 8.46C21.32 8.62 21.28 8.74 21.23 8.86L21.08 8.73C21.12 8.66 21.16 8.58 21.19 8.5C21.24 8.39 21.24 8.33 21.23 8.26C21.23 8.23 21.22 8.2 21.21 8.17C21.25 8.26 21.28 8.36 21.3 8.46L21.3 8.46ZM21.08 8.04C21.17 8.11 21.18 8.22 21.18 8.27C21.19 8.34 21.17 8.4 21.13 8.5C21.11 8.57 21.07 8.63 21.04 8.7L20.52 8.25C20.53 8.22 20.58 8.03 20.78 7.99C20.81 7.99 20.97 7.96 21.08 8.04L21.08 8.04Z" fill="#FF922E" fill-opacity="1.000000" fill-rule="nonzero"/>
		<path id="Vector" d="M20.39 8.5C20.35 8.59 20.29 8.71 20.22 8.85L20.74 9.31L20.91 8.95L20.39 8.5ZM20.72 9.22L20.29 8.85C20.33 8.76 20.38 8.67 20.42 8.59L20.85 8.96L20.72 9.22Z" fill="#FFFFFF" fill-opacity="1.000000" fill-rule="nonzero"/>
		<path id="Vector" d="M20.86 9.64L20.89 9.56L20.74 9.43L20.7 9.51L20.86 9.64Z" fill="#FFFFFF" fill-opacity="1.000000" fill-rule="nonzero"/>
		<path id="Vector" d="M20.78 9.8L20.83 9.7L20.67 9.57L20.63 9.67L20.78 9.8ZM20.69 9.67L20.7 9.65L20.76 9.71L20.75 9.72L20.69 9.67Z" fill="#FFFFFF" fill-opacity="1.000000" fill-rule="nonzero"/>
		<path id="Vector" d="M21.43 6.74L21.4 6.73C21.04 6.59 20.66 6.55 20.33 6.64C20 6.73 19.75 6.92 19.62 7.19L19.51 7.41L18.89 8.72C18.82 8.86 18.87 9.05 19.03 9.19L19.19 9.34L19.32 9.46L19.27 9.57C19.22 9.67 19.24 9.8 19.31 9.92L19.38 10.01L19.42 9.93L19.78 9.17C19.81 9.11 19.85 9.04 19.88 8.97C19.89 8.96 19.9 8.94 19.92 8.93C19.94 8.92 19.96 8.91 19.98 8.91C20.02 8.91 20.06 8.92 20.09 8.93L20.07 8.99L20.04 9.04L20.03 9.07L20.06 9.1L20.57 9.54L20.56 9.56L20.36 9.39L20.08 9.15L20.02 9.09L19.99 9.15C19.92 9.29 19.85 9.42 19.79 9.54C19.72 9.67 19.66 9.79 19.59 9.93C19.59 9.93 19.59 9.93 19.59 9.94C19.55 10.02 19.57 10.12 19.65 10.2C19.68 10.24 19.71 10.27 19.75 10.3C19.79 10.32 19.84 10.33 19.88 10.33C19.9 10.33 19.92 10.32 19.93 10.31C19.95 10.3 19.96 10.29 19.97 10.27C19.97 10.27 19.98 10.26 19.98 10.26L19.98 10.26C19.98 10.24 19.98 10.21 19.98 10.19C19.97 10.17 19.96 10.15 19.95 10.14L19.97 10.1L20 10.03L20.02 10.04C20.26 10.24 20.48 10.43 20.69 10.6C21.55 11.32 22.16 11.84 22.37 12.04C22.67 12.33 22.87 12.28 22.96 12.23C23 12.2 23.04 12.16 23.06 12.12L23.37 11.47L23.38 11.44L23.35 11.42L21.91 10.19L21.85 10.14L21.82 10.2L21.76 10.33C21.75 10.34 21.74 10.36 21.72 10.36C21.7 10.37 21.68 10.38 21.66 10.37L21.78 10.13L21.98 9.72C22.33 9.7 22.68 9.69 23.02 9.67C23.36 9.65 23.71 9.64 24.05 9.62L24.07 9.57C23.36 9.61 22.65 9.64 21.93 9.67L21.73 10.1L21.59 10.4C21.68 10.44 21.78 10.42 21.81 10.35L21.87 10.22L23.32 11.45L23 12.09C22.99 12.13 22.96 12.16 22.92 12.18C22.84 12.24 22.67 12.27 22.41 12.01C22.15 11.76 21.27 11.03 20.06 10.01L20.18 9.76C20.2 9.72 20.17 9.67 20.12 9.64L19.98 9.95L19.92 10.07L19.89 10.13C19.89 10.14 19.94 10.18 19.92 10.24C19.92 10.24 19.92 10.24 19.92 10.24C19.92 10.24 19.92 10.25 19.92 10.25C19.9 10.29 19.83 10.3 19.78 10.26C19.75 10.24 19.72 10.21 19.69 10.18C19.63 10.11 19.61 10.03 19.64 9.96C19.64 9.96 19.64 9.96 19.64 9.96C19.78 9.68 19.9 9.45 20.04 9.18L20.58 9.64L20.63 9.54L20.1 9.07L20.12 9.01L20.66 9.48L20.7 9.4L20.14 8.91C20.03 8.84 19.88 8.85 19.83 8.95C19.79 9.01 19.76 9.08 19.73 9.14L19.36 9.9C19.29 9.8 19.28 9.69 19.32 9.6L19.39 9.46L19.06 9.16C18.93 9.04 18.88 8.87 18.94 8.75L19.57 7.44L19.68 7.21C19.93 6.68 20.67 6.49 21.39 6.77L21.42 6.78C21.53 6.83 21.63 6.88 21.73 6.95C22.35 7.34 22.62 8 22.38 8.51L22.21 8.84L24.5 8.68L24.52 8.63L24.48 8.64L23.15 8.73L22.3 8.79L22.43 8.54C22.55 8.28 22.55 7.98 22.43 7.68C22.31 7.38 22.07 7.11 21.76 6.91C21.65 6.85 21.55 6.79 21.43 6.74ZM20.11 8.94L20.17 8.99L20.16 8.98L20.11 8.94L20.11 8.94Z" fill="#FFFFFF" fill-opacity="1.000000" fill-rule="nonzero"/>
		<path id="Vector" d="M20.93 9.48C20.95 9.44 20.97 9.4 20.99 9.36C21.03 9.27 21.07 9.19 21.1 9.12L20.95 8.99L20.78 9.34L20.93 9.48ZM20.85 9.34L20.98 9.07L21.04 9.13C21 9.19 20.97 9.27 20.93 9.34L20.91 9.39L20.85 9.34Z" fill="#FFFFFF" fill-opacity="1.000000" fill-rule="nonzero"/>
		<path id="Vector" d="M21.21 8.17C21.22 8.2 21.23 8.23 21.23 8.26C21.24 8.33 21.23 8.39 21.19 8.5C21.17 8.54 21.16 8.58 21.14 8.62C21.12 8.65 21.1 8.69 21.08 8.73L21.23 8.86C21.28 8.74 21.32 8.62 21.3 8.45C21.28 8.36 21.25 8.26 21.21 8.17ZM21.2 8.78L21.15 8.73C21.16 8.7 21.18 8.67 21.19 8.64C21.21 8.61 21.23 8.57 21.24 8.53L21.25 8.51C21.25 8.6 21.23 8.69 21.2 8.78L21.2 8.78Z" fill="#FFFFFF" fill-opacity="1.000000" fill-rule="nonzero"/>
		<path id="Vector" d="M21.13 8.5C21.17 8.4 21.19 8.35 21.18 8.27C21.18 8.22 21.17 8.11 21.08 8.04C20.97 7.96 20.81 7.99 20.79 7.99C20.73 8 20.68 8.02 20.64 8.05C20.6 8.09 20.57 8.13 20.55 8.18C20.54 8.2 20.53 8.22 20.52 8.25L21.04 8.7C21.05 8.67 21.07 8.64 21.09 8.6C21.1 8.57 21.12 8.54 21.13 8.5ZM20.58 8.24C20.59 8.23 20.59 8.21 20.6 8.2C20.62 8.16 20.65 8.12 20.68 8.09C20.72 8.07 20.76 8.05 20.81 8.04C20.85 8.03 20.97 8.02 21.04 8.08C21.11 8.13 21.12 8.21 21.13 8.26C21.13 8.33 21.12 8.37 21.08 8.48C21.06 8.51 21.05 8.54 21.03 8.57C21.03 8.59 21.02 8.6 21.01 8.62L20.58 8.24Z" fill="#FFFFFF" fill-opacity="1.000000" fill-rule="nonzero"/>
		<path id="Vector" d="M20.48 8.33L20.44 8.42L20.96 8.87L20.99 8.79L20.48 8.33Z" fill="#FFFFFF" fill-opacity="1.000000" fill-rule="nonzero"/>
		<path id="Vector" d="M21.19 8.95L21.03 8.82L21 8.9L21.15 9.03L21.17 9L21.19 8.95Z" fill="#FFFFFF" fill-opacity="1.000000" fill-rule="nonzero"/>
		<path id="Vector" d="M15.58 8.49C15.54 7.79 15.66 7.12 15.95 6.51L14.26 5.7L14.26 5.71C13.87 6.51 13.72 7.37 13.78 8.25L15.58 8.49Z" fill="#F7FAF6" fill-opacity="1.000000" fill-rule="nonzero"/>
		<path id="Vector" d="M16.53 3.39L17.65 4.65C18.29 4.31 19.02 4.1 19.83 4.02L19.3 2.59C18.29 2.68 17.34 2.95 16.53 3.39Z" fill="#FFFFFF" fill-opacity="1.000000" fill-rule="nonzero"/>
		<path id="Vector" d="M23.91 4.81C24.36 5.03 24.8 5.28 25.21 5.58L26.14 4.57C25.24 3.92 24.25 3.41 23.2 3.07L22.89 4.4C23.24 4.51 23.58 4.65 23.91 4.81Z" fill="#FFFFFF" fill-opacity="1.000000" fill-rule="nonzero"/>
		<path id="Vector" d="M28.77 7.42L27.27 7.82C27.67 8.51 27.92 9.21 27.99 9.92L29.69 10.09C29.59 9.19 29.28 8.28 28.77 7.42Z" fill="#FFFFFF" fill-opacity="1.000000" fill-rule="nonzero"/>
		<path id="Vector" d="M27.97 14.64L28 14.6C28.02 14.58 28.04 14.55 28.05 14.53L29.09 13.18L27.29 15.03L27.33 15.31C27.56 15.11 27.78 14.88 27.97 14.64Z" fill="#EDE8E8" fill-opacity="1.000000" fill-rule="nonzero"/>
		<path id="Vector" d="M20.53 16.63C21.7 16.9 22.86 16.95 23.92 16.8L23.96 16.04L20.8 15.69L20.53 16.63Z" fill="#EDE8E8" fill-opacity="1.000000" fill-rule="nonzero"/>
		<path id="Vector" d="M14.28 12.42C14.87 13.32 15.67 14.15 16.65 14.86L17.15 13.89L14.96 11.57L14.28 12.42Z" fill="#EDE8E8" fill-opacity="1.000000" fill-rule="nonzero"/>
		<path id="Vector" d="M14.26 5.71L13.86 6.02C13.75 6.19 13.65 6.36 13.57 6.54C13.2 7.29 13.05 8.1 13.08 8.93L13.78 8.25L14.26 5.71Z" fill="#EDE8E8" fill-opacity="1.000000" fill-rule="nonzero"/>
		<path id="Vector" d="M27.29 15.03C28.04 14.56 28.66 13.94 29.09 13.18L27.51 12.35C27.18 12.93 26.71 13.42 26.1 13.8L27.29 15.03Z" fill="#FFFFFF" fill-opacity="1.000000" fill-rule="nonzero"/>
		<path id="Vector" d="M20.8 15.69C21.88 15.99 22.95 16.1 23.96 16.03L23.51 14.63C22.7 14.67 21.86 14.57 21.03 14.33L20.8 15.69Z" fill="#FFFFFF" fill-opacity="1.000000" fill-rule="nonzero"/>
		<path id="Vector" d="M17.15 13.89L18.17 12.89C17.49 12.37 16.92 11.75 16.48 11.08L14.96 11.57C15.51 12.42 16.25 13.21 17.15 13.89Z" fill="#FFFFFF" fill-opacity="1.000000" fill-rule="nonzero"/>
		<path id="Vector" d="M15.58 8.49C15.54 7.79 15.66 7.12 15.95 6.51L14.26 5.7L14.26 5.71C13.87 6.51 13.72 7.37 13.78 8.25L15.58 8.49Z" fill="#FFFFFF" fill-opacity="1.000000" fill-rule="nonzero"/>
		<path id="Vector" d="M6.86 9.32L7.06 9.32L7.06 9.38L6.86 9.38L6.86 9.32Z" fill="#FF922E" fill-opacity="1.000000" fill-rule="evenodd"/>
	</g>
</svg>
