<svg width="26" height="30" viewBox="0 0 26 30" fill="none" xmlns="http://www.w3.org/2000/svg">
<path d="M13.0719 18.8103C15.4238 18.8103 17.3305 16.9037 17.3305 14.5517C17.3305 12.1997 15.4238 10.2931 13.0719 10.2931C10.7199 10.2931 8.81323 12.1997 8.81323 14.5517C8.81323 16.9037 10.7199 18.8103 13.0719 18.8103Z" stroke="#3B436B" stroke-width="1.34483"/>
<path d="M13.0001 16.1207C13.8666 16.1207 14.5691 15.4183 14.5691 14.5518C14.5691 13.6852 13.8666 12.9828 13.0001 12.9828C12.1336 12.9828 11.4312 13.6852 11.4312 14.5518C11.4312 15.4183 12.1336 16.1207 13.0001 16.1207Z" stroke="#3B436B" stroke-width="1.34483"/>
<path d="M16.8486 25.6752C10.3544 27.4614 3.80787 23.9991 2.22669 17.9418C1.32731 14.4965 2.22809 10.9538 4.36728 8.21033" stroke="#2D3660" stroke-width="1.34483" stroke-linecap="round" stroke-linejoin="round"/>
<path d="M9.03662 3.88934C15.5309 2.10315 22.0773 5.56552 23.6586 11.6228C24.5579 15.0681 23.6571 18.6109 21.518 21.3543" stroke="#2D3660" stroke-width="1.34483" stroke-linecap="round" stroke-linejoin="round"/>
<path d="M0.861572 9.04881L4.31938 8.09778L5.22517 11.5677" stroke="#2D3660" stroke-width="1.34483" stroke-linecap="round" stroke-linejoin="round"/>
<path d="M25.0238 20.5158L21.566 21.4669L20.6602 17.9969" stroke="#2D3660" stroke-width="1.34483" stroke-linecap="round" stroke-linejoin="round"/>
</svg>
