<svg width="30" height="34" viewBox="0 0 30 34" fill="none" xmlns="http://www.w3.org/2000/svg">
<path d="M15.0461 23.7046C18.8615 23.7046 21.9545 20.6116 21.9545 16.7962C21.9545 12.9808 18.8615 9.88782 15.0461 9.88782C11.2307 9.88782 8.1377 12.9808 8.1377 16.7962C8.1377 20.6116 11.2307 23.7046 15.0461 23.7046Z" stroke="#3B436B" stroke-width="1.32353"/>
<path d="M15.0453 19.2761C16.5127 19.2761 17.7023 18.1261 17.7023 16.7076C17.7023 15.289 16.5127 14.139 15.0453 14.139C13.5778 14.139 12.3882 15.289 12.3882 16.7076C12.3882 18.1261 13.5778 19.2761 15.0453 19.2761Z" stroke="#4D5B97" stroke-width="1.32353"/>
<path d="M13.7974 7.29453L15 3.08533L16.2026 7.29453H13.7974Z" stroke="#4D5B97" stroke-width="1.32353"/>
<path d="M16.2028 26.2977L15.0002 30.5069L13.7976 26.2977H16.2028Z" stroke="#4D5B97" stroke-width="1.32353"/>
<path d="M6.17017 13.0868L3.12622 9.94067L7.3728 11.0038L6.17017 13.0868Z" stroke="#4D5B97" stroke-width="1.32353"/>
<path d="M23.83 20.5055L26.874 23.6516L22.6274 22.5886L23.83 20.5055Z" stroke="#4D5B97" stroke-width="1.32353"/>
<path d="M22.6272 11.0039L26.8738 9.9408L23.8298 13.0869L22.6272 11.0039Z" stroke="#4D5B97" stroke-width="1.32353"/>
<path d="M7.37283 22.5884L3.12622 23.6515L6.1702 20.5054L7.37283 22.5884Z" stroke="#4D5B97" stroke-width="1.32353"/>
</svg>
