<svg width="32" height="33" viewBox="0 0 32 33" fill="none" xmlns="http://www.w3.org/2000/svg">
<path d="M12.2766 20.2228L13.8896 18.6099" stroke="#3B436B" stroke-width="1.41176" stroke-linecap="round" stroke-linejoin="round"/>
<path d="M18.3188 14.181L19.7225 12.7773" stroke="#3B436B" stroke-width="1.41176" stroke-linecap="round" stroke-linejoin="round"/>
<path d="M12.2766 12.7773L13.6804 14.181" stroke="#3B436B" stroke-width="1.41176" stroke-linecap="round" stroke-linejoin="round"/>
<path d="M18.3188 18.819L19.7225 20.2227" stroke="#3B436B" stroke-width="1.41176" stroke-linecap="round" stroke-linejoin="round"/>
<path d="M23.986 24.4862C28.3967 20.0755 28.3967 12.9245 23.986 8.51384C19.5754 4.10322 12.4244 4.10322 8.01378 8.51384C3.60315 12.9245 3.60315 20.0755 8.01378 24.4862C12.4244 28.8968 19.5754 28.8968 23.986 24.4862Z" stroke="#4D5B97" stroke-width="1.41176" stroke-linecap="round" stroke-linejoin="round"/>
<path d="M23.986 24.4862C28.3967 20.0755 28.3967 12.9245 23.986 8.51384C19.5754 4.10322 12.4244 4.10322 8.01378 8.51384C3.60315 12.9245 3.60315 20.0755 8.01378 24.4862C12.4244 28.8968 19.5754 28.8968 23.986 24.4862Z" stroke="#3B436B" stroke-width="1.41176" stroke-linecap="round" stroke-linejoin="round" stroke-dasharray="4.71 4.71"/>
<path d="M18.11 18.6099C19.2753 17.4447 19.2753 15.5554 18.11 14.3902C16.9448 13.2249 15.0555 13.2249 13.8902 14.3902C12.7251 15.5554 12.7251 17.4447 13.8902 18.6099C15.0555 19.7751 16.9448 19.7751 18.11 18.6099Z" stroke="#2D3660" stroke-width="1.41176" stroke-linecap="round" stroke-linejoin="round"/>
<path d="M12.0854 12.5853C12.6632 12.0075 12.6632 11.0707 12.0854 10.4929C11.5076 9.91512 10.5708 9.91512 9.99298 10.4929C9.4151 11.0707 9.4151 12.0075 9.99298 12.5853C10.5708 13.1632 11.5076 13.1632 12.0854 12.5853Z" stroke="#3B436B" stroke-width="1.41176" stroke-linecap="round" stroke-linejoin="round"/>
<path d="M22.0073 22.507C22.5851 21.9292 22.5851 20.9924 22.0073 20.4146C21.4295 19.8367 20.4926 19.8367 19.9149 20.4146C19.337 20.9924 19.337 21.9292 19.9149 22.507C20.4926 23.0848 21.4295 23.0848 22.0073 22.507Z" stroke="#3B436B" stroke-width="1.41176" stroke-linecap="round" stroke-linejoin="round"/>
<path d="M22.0073 12.5853C22.5851 12.0075 22.5851 11.0706 22.0073 10.4929C21.4295 9.91506 20.4926 9.91506 19.9149 10.4929C19.337 11.0706 19.337 12.0075 19.9149 12.5853C20.4926 13.1631 21.4295 13.1631 22.0073 12.5853Z" stroke="#3B436B" stroke-width="1.41176" stroke-linecap="round" stroke-linejoin="round"/>
<path d="M12.0854 22.507C12.6632 21.9292 12.6632 20.9924 12.0854 20.4146C11.5076 19.8367 10.5708 19.8367 9.99298 20.4146C9.4151 20.9924 9.4151 21.9292 9.99298 22.507C10.5708 23.0848 11.5076 23.0848 12.0854 22.507Z" stroke="#3B436B" stroke-width="1.41176" stroke-linecap="round" stroke-linejoin="round"/>
</svg>
