<svg width="24" height="25" viewBox="0 0 24 25" fill="none" xmlns="http://www.w3.org/2000/svg">
  <g>
    <mask id="mask0_0_125" style="mask-type:luminance" maskUnits="userSpaceOnUse" x="0" y="0" width="24" height="25">
        <path d="M24 0.5H0V24.5H24V0.5Z" fill="white" />
    </mask>
    <g mask="url(#mask0_0_125)">
        <path d="M11.9975 6.87207C12.7 6.87207 13.2638 7.43207 13.2644 8.13145C13.265 8.82707 12.6956 9.39957 12.0013 9.40082C11.3088 9.40207 10.735 8.82895 10.7344 8.13582C10.7338 7.43645 11.2969 6.87269 11.9975 6.87207Z" fill="#3B436B" />
        <path d="M11.0638 14.5087C11.0638 13.5018 11.0607 12.4943 11.0657 11.4875C11.0676 11.0712 11.3251 10.7225 11.7026 10.5962C12.0776 10.4712 12.5051 10.5806 12.727 10.9081C12.8388 11.0731 12.9282 11.2925 12.9295 11.4881C12.9439 13.4943 12.9407 15.5006 12.937 17.5068C12.9357 18.0556 12.5214 18.4606 11.9888 18.4556C11.4707 18.4506 11.0682 18.0443 11.0651 17.5056C11.0601 16.5062 11.0638 15.5074 11.0638 14.5087Z" fill="#3B436B" />
        <path d="M12.75 24.5H11.25C11.19 24.4869 11.1306 24.4656 11.07 24.4613C9.79125 24.3663 8.55188 24.0925 7.38062 23.5713C3.43 21.815 1.01813 18.8175 0.18375 14.5675C0.09875 14.1331 0.06 13.6894 0 13.25V11.75C0.01375 11.6819 0.029375 11.6144 0.04 11.5463C0.135 10.9381 0.191875 10.3212 0.33 9.72313C1.40375 5.07625 5.24 1.47812 9.95562 0.679375C10.385 0.606875 10.8188 0.559375 11.25 0.5C11.75 0.5 12.25 0.5 12.75 0.5C12.81 0.513125 12.87 0.52875 12.9306 0.53875C13.6825 0.668125 14.4594 0.71625 15.1831 0.93875C19.9231 2.3975 22.81 5.5675 23.8156 10.4319C23.905 10.8656 23.94 11.31 24.0006 11.75V13.25C23.9875 13.3106 23.9669 13.37 23.9619 13.4312C23.7513 16.0606 22.7875 18.3806 21.0569 20.3662C19.1963 22.5012 16.86 23.8212 14.0675 24.3181C13.6313 24.3956 13.1888 24.44 12.75 24.5ZM12.0031 2.375C6.41625 2.3725 1.88812 6.89187 1.875 12.4844C1.86188 18.075 6.4 22.6213 11.9963 22.6244C17.5825 22.6275 22.1112 18.1075 22.1244 12.5144C22.1381 6.92187 17.6018 2.37813 12.0031 2.375Z" fill="#3B436B" />
    </g>
  </g>
</svg>