
<svg width="42" height="43" viewBox="0 0 42 43" fill="none" xmlns="http://www.w3.org/2000/svg">
<g clip-path="url(#clip0_0_11)">
<path d="M38.3028 34.6586C37.9657 34.5574 37.5729 34.6388 37.2239 35.2317L31.8848 35.2476L31.1311 37.336C31.0493 37.5623 30.8997 37.7581 30.7028 37.8964C30.5058 38.0348 30.2711 38.1092 30.0305 38.1095L31.0618 35.2497H30.2803L29.5286 37.334C29.4464 37.5605 29.2965 37.7563 29.0992 37.8946C28.9019 38.033 28.6669 38.1073 28.4259 38.1076L29.4572 35.2516H28.6758L27.9321 37.336C27.8507 37.5627 27.7012 37.7587 27.5042 37.8972C27.3072 38.0357 27.0721 38.1099 26.8313 38.1095L27.8607 35.2575L22.1091 35.2735H18.1643C18.2352 35.005 18.3929 34.7678 18.6128 34.5984C18.8328 34.4291 19.1026 34.3372 19.38 34.3372H22.355L26.9166 18.215H18.8744C16.776 24.9067 14.6777 32.4611 12.5793 39.3272C12.2243 40.4855 13.0831 41.9056 14.2949 41.9235C21.7244 42.0087 29.1538 41.8401 36.5853 41.9235C36.7913 41.9261 36.9925 41.8602 37.157 41.736C37.3214 41.6116 37.4399 41.4363 37.4936 41.2372L38.9513 35.8724C39.0213 35.6255 38.9928 35.361 38.8718 35.1347C38.7509 34.9083 38.5469 34.7376 38.3028 34.6586Z" fill="url(#paint0_linear_0_11)"/>
<path d="M31.949 0.51785V0.5H23.7005C23.5173 0.499995 23.336 0.536231 23.1668 0.60662C22.9978 0.677008 22.8443 0.780158 22.7152 0.910127C22.5862 1.0401 22.4841 1.19431 22.415 1.3639C22.3458 1.53348 22.3108 1.71508 22.3122 1.89823H26.4116C26.3174 2.15042 26.1505 2.36895 25.9319 2.52608C25.7133 2.68321 25.453 2.77187 25.184 2.7808L23.6092 2.82642C22.9031 5.13101 22.1957 7.43561 21.4871 9.7402H29.343L31.5583 1.89823H31.7764C31.9514 1.9007 32.1212 1.83885 32.2536 1.72441C32.3858 1.60997 32.4716 1.45092 32.4944 1.27745C32.514 1.10573 32.469 0.932841 32.3682 0.792438C32.2674 0.652036 32.118 0.554158 31.949 0.51785Z" fill="url(#paint1_linear_0_11)"/>
<path d="M38.5382 12.4195L38.5202 12.2112C38.086 7.3561 33.9567 3.6731 29.0798 3.6731H14.9666C14.3941 3.67277 13.8353 3.84864 13.3663 4.17685C12.8972 4.50507 12.5405 4.9697 12.3446 5.50766C11.9757 6.40014 11.6055 7.29263 11.234 8.18512H10.0043C9.58475 8.1856 9.17085 8.2822 8.79439 8.46751C8.41793 8.65281 8.08893 8.9219 7.83263 9.25412H14.8218C15.4346 9.25412 16.0416 9.27196 16.6464 9.28386C16.8557 9.28834 17.0615 9.3376 17.2502 9.42831C17.4389 9.51901 17.6059 9.64907 17.74 9.80973C17.8742 9.9704 17.9724 10.1579 18.028 10.3597C18.0837 10.5615 18.0954 10.7729 18.0625 10.9796L16.4144 15.5015H15.6349L17.2057 11.1383H16.7178L15.1451 15.5015H14.1534L15.7281 11.1383C13.13 11.0867 11.0277 11.0371 8.4296 10.9875C8.12287 10.982 7.82062 11.0618 7.55658 11.2179C7.29253 11.3741 7.07706 11.6006 6.93419 11.8721C6.81092 12.1073 6.72018 12.3581 6.66446 12.6178C6.64399 12.7126 6.64641 12.811 6.6715 12.9047C6.6966 12.9984 6.74367 13.0848 6.80879 13.1567C6.87393 13.2287 6.95526 13.284 7.04604 13.3183C7.13682 13.3525 7.23446 13.3646 7.33085 13.3536H7.34474C7.48532 13.3288 7.61806 13.2712 7.73213 13.1853C7.84622 13.0995 7.9384 12.988 8.00121 12.8598H12.5231C12.5247 12.9471 12.5089 13.0338 12.4767 13.1149C12.4444 13.1961 12.3963 13.27 12.3352 13.3324C12.2741 13.3947 12.2013 13.4444 12.1208 13.4784C12.0404 13.5122 11.954 13.5299 11.8667 13.5302H9.50257C6.23012 23.2602 3.93346 30.2672 2.98345 32.4309C2.03345 34.5948 2.84264 35.4992 3.5368 35.8403C3.8369 35.9841 4.16592 36.0574 4.49869 36.0545H10.4645L14.4311 24.4621H13.255C12.9499 24.4621 12.6573 24.3408 12.4416 24.1251C12.2259 23.9094 12.1047 23.6169 12.1047 23.3117H18.7666C21.5888 27.2784 24.411 31.3005 27.2333 35.2731C29.9465 35.2731 32.6596 35.2314 35.3649 35.2314L25.9501 22.57L29.062 22.6552C31.3218 22.6643 33.5104 21.8639 35.2311 20.3988C36.952 18.9338 38.0913 16.901 38.443 14.6685C38.5571 13.9246 38.5891 13.1704 38.5382 12.4195ZM14.5818 17.0605H13.6695L14.1157 15.8268H15.0261L14.5818 17.0605ZM15.8491 17.0605H15.159L15.6012 15.8347H16.2954L15.8491 17.0605ZM19.9248 17.0605C19.0363 17.0605 17.9521 17.0605 16.6722 17.0605L17.1165 15.8407H20.3671L19.9248 17.0605ZM17.2374 15.5015L18.7745 11.2811C20.0953 11.2989 21.1901 11.3068 21.9993 11.3088L20.4861 15.5015H17.2374ZM21.4838 17.0683H21.0692H20.746L21.1882 15.8307H21.9279L21.4838 17.0683ZM21.3072 15.5015L22.8205 11.3108H23.5681L22.0469 15.5015H21.3072ZM25.5892 16.3246C24.4626 16.8939 23.4075 17.0346 22.3068 17.0624L22.751 15.8307C23.45 15.8678 24.1504 15.8678 24.8494 15.8307C25.8906 15.7772 26.3626 15.6701 26.8326 15.4202C27.0299 15.3139 27.2155 15.1869 27.386 15.0414C26.8586 15.5613 26.2522 15.9944 25.5892 16.3246ZM27.8918 13.9446C27.6934 14.6567 26.9695 14.9958 26.5768 15.1782C26.0493 15.4202 25.5851 15.4539 24.6867 15.5054C24.0818 15.5425 23.4751 15.5425 22.87 15.5054L24.3773 11.3267C24.5757 11.291 26.2079 11.045 27.2333 12.1359C27.3722 12.2787 28.1297 13.074 27.8918 13.9406V13.9446Z" fill="url(#paint2_linear_0_11)"/>
<path d="M16.7403 12.455L17.2122 11.146H16.7184L15.9688 13.2265L16.7403 12.455Z" fill="url(#paint3_linear_0_11)"/>
<path d="M17.5796 9.64482C17.7662 9.80842 17.9083 10.0167 17.9926 10.2501C18.0768 10.4835 18.1006 10.7345 18.0616 10.9796L17.9763 11.2097L25.5266 3.6731H23.5671L17.5796 9.64482Z" fill="url(#paint4_linear_0_11)"/>
<path d="M14.4139 14.7798L15.5265 11.6997L7.39497 19.8313C7.04855 20.8678 6.718 21.8549 6.40332 22.7923L14.4139 14.7798Z" fill="url(#paint5_linear_0_11)"/>
<path d="M34.7662 5.5437L27.6442 12.6657C27.7685 12.851 27.8545 13.0592 27.8972 13.2783C27.9398 13.4974 27.938 13.7226 27.8921 13.941C27.6937 14.653 26.9697 14.9922 26.5771 15.1746C26.0753 15.4047 25.633 15.4463 24.814 15.4959L24.4629 15.849L24.8496 15.831C25.8909 15.7776 26.3629 15.6704 26.8329 15.4206C27.0303 15.3142 27.2158 15.1872 27.3863 15.0417C26.8625 15.5606 26.2601 15.9937 25.6013 16.325C24.8897 16.6839 24.119 16.911 23.3264 16.9953L16.9978 23.3082H18.7669C19.1742 23.8794 19.58 24.4519 19.9846 25.0257L37.041 7.96928C36.4313 7.03328 35.6612 6.21216 34.7662 5.5437Z" fill="url(#paint6_linear_0_11)"/>
<path d="M13.6883 26.62L4.26562 36.0428C4.34273 36.0507 4.42017 36.0546 4.49767 36.0546H8.95812L11.2449 33.7659L13.6883 26.62Z" fill="url(#paint7_linear_0_11)"/>
<path d="M29.0808 3.67316H27.0677L19.4438 11.289C20.4672 11.3009 21.332 11.3069 22.0003 11.3089L20.487 15.5016H17.2384L18.3887 12.3442L17.0956 13.6373L16.4153 15.5016H15.6359L15.866 14.863L14.9021 15.8307H15.027L14.5828 17.0605H13.6705L5.61032 25.1225C4.3886 28.7302 3.49413 31.2768 2.98442 32.4311C2.1911 34.2339 2.60958 35.1422 3.16689 35.6043L14.3091 24.4621H13.2559C12.9509 24.4621 12.6583 24.341 12.4425 24.1252C12.2268 23.9095 12.1056 23.6169 12.1056 23.3118H15.4594L22.6469 16.1244L22.752 15.8307H22.9325L23.2498 15.5115C23.1169 15.5115 22.99 15.5115 22.871 15.4936L24.3783 11.3148C24.5627 11.2831 25.9054 11.0808 26.9209 11.8424L33.8367 4.9266C32.3886 4.09942 30.7484 3.66718 29.0808 3.67316ZM15.8501 17.0526H15.1599L15.6022 15.8268H16.2963L15.8501 17.0526ZM19.9258 17.0526C19.0373 17.0526 17.953 17.0526 16.6732 17.0526L17.1174 15.8328H20.368L19.9258 17.0526ZM21.4846 17.0644H21.0702H20.7469L21.1892 15.8307H21.9289L21.4846 17.0644ZM22.0479 15.4977H21.3082L22.8214 11.3069H23.5691L22.0479 15.4977Z" fill="url(#paint8_linear_0_11)"/>
</g>
<defs>
<linearGradient id="paint0_linear_0_11" x1="34.2112" y1="4.27836" x2="19.8699" y2="60.8501" gradientUnits="userSpaceOnUse">
<stop stop-color="#FF922E"/>
<stop offset="1" stop-color="#FFC239"/>
</linearGradient>
<linearGradient id="paint1_linear_0_11" x1="27.1513" y1="2.48727" x2="12.8081" y2="59.0589" gradientUnits="userSpaceOnUse">
<stop stop-color="#FF922E"/>
<stop offset="1" stop-color="#FFC239"/>
</linearGradient>
<linearGradient id="paint2_linear_0_11" x1="28.3221" y1="7.46517" x2="8.62991" y2="50.7765" gradientUnits="userSpaceOnUse">
<stop stop-color="#F9F9F9"/>
<stop offset="1" stop-color="#B5B5B5"/>
</linearGradient>
<linearGradient id="paint3_linear_0_11" x1="-2.51171" y1="30.7252" x2="44.2505" y2="-15.2538" gradientUnits="userSpaceOnUse">
<stop stop-color="#F9F9F9"/>
<stop offset="1" stop-color="#B5B5B5"/>
</linearGradient>
<linearGradient id="paint4_linear_0_11" x1="-2.71158" y1="30.525" x2="44.0508" y2="-15.4519" gradientUnits="userSpaceOnUse">
<stop stop-color="#F9F9F9"/>
<stop offset="1" stop-color="#B5B5B5"/>
</linearGradient>
<linearGradient id="paint5_linear_0_11" x1="-2.62665" y1="30.6085" x2="44.1357" y2="-15.3684" gradientUnits="userSpaceOnUse">
<stop stop-color="#F9F9F9"/>
<stop offset="1" stop-color="#B5B5B5"/>
</linearGradient>
<linearGradient id="paint6_linear_0_11" x1="4.45933" y1="37.818" x2="51.2217" y2="-8.16091" gradientUnits="userSpaceOnUse">
<stop stop-color="#F9F9F9"/>
<stop offset="1" stop-color="#B5B5B5"/>
</linearGradient>
<linearGradient id="paint7_linear_0_11" x1="4.59287" y1="37.9547" x2="51.3552" y2="-8.02427" gradientUnits="userSpaceOnUse">
<stop stop-color="#F9F9F9"/>
<stop offset="1" stop-color="#B5B5B5"/>
</linearGradient>
<linearGradient id="paint8_linear_0_11" x1="0.60842" y1="33.9007" x2="47.3707" y2="-12.0782" gradientUnits="userSpaceOnUse">
<stop stop-color="#F9F9F9"/>
<stop offset="1" stop-color="#B5B5B5"/>
</linearGradient>
<clipPath id="clip0_0_11">
<rect width="36.9091" height="42" fill="white" transform="translate(2.54541 0.5)"/>
</clipPath>
</defs>
</svg>
