<svg width="161" height="41" viewBox="0 0 161 41" fill="none" xmlns="http://www.w3.org/2000/svg">
  <g clip-path="url(#clip0_0_139)">
    <path d="M33.8 32.7451C33.4861 32.6509 33.1204 32.7267 32.7954 33.2788L27.8238 33.2936L27.1219 35.2383C27.0457 35.449 26.9065 35.6313 26.7231 35.7601C26.5397 35.8889 26.3211 35.9583 26.097 35.9585L27.0573 33.2955H26.3297L25.6297 35.2364C25.5532 35.4474 25.4136 35.6296 25.2299 35.7585C25.0462 35.8873 24.8273 35.9565 24.6029 35.9567L25.5633 33.2973H24.8356L24.1431 35.2383C24.0673 35.4494 23.9281 35.6319 23.7447 35.7608C23.5612 35.8898 23.3423 35.9589 23.1181 35.9585L24.0766 33.3029L18.7209 33.3177H15.0476C15.1136 33.0677 15.2604 32.8468 15.4652 32.6891C15.67 32.5315 15.9212 32.4459 16.1796 32.4459H18.9499L23.1975 17.4332H15.7088C13.7548 23.6644 11.8009 30.6989 9.84697 37.0924C9.51639 38.171 10.3161 39.4934 11.4445 39.51C18.3626 39.5894 25.2807 39.4324 32.2007 39.51C32.3926 39.5125 32.5799 39.4511 32.7331 39.3354C32.8862 39.2196 32.9965 39.0563 33.0465 38.871L34.4039 33.8754C34.469 33.6455 34.4425 33.3992 34.3299 33.1885C34.2173 32.9777 34.0273 32.8187 33.8 32.7451Z" fill="url(#paint0_linear_0_139)" />
    <path d="M27.8838 0.954121V0.9375H20.2029C20.0324 0.937496 19.8635 0.971237 19.706 1.03678C19.5486 1.10233 19.4057 1.19838 19.2855 1.3194C19.1653 1.44042 19.0703 1.58403 19.0059 1.74194C18.9415 1.89985 18.9089 2.06895 18.9102 2.2395H22.7275C22.6398 2.47433 22.4843 2.67782 22.2808 2.82414C22.0772 2.97045 21.8348 3.05301 21.5843 3.06133L20.1179 3.1038C19.4604 5.24978 18.8017 7.39577 18.1418 9.54175H25.4571L27.5199 2.2395H27.7231C27.886 2.2418 28.0441 2.1842 28.1674 2.07764C28.2905 1.97108 28.3704 1.82298 28.3916 1.66145C28.4098 1.50154 28.368 1.34055 28.2741 1.20981C28.1803 1.07907 28.0411 0.987931 27.8838 0.954121Z" fill="url(#paint1_linear_0_139)" />
    <path d="M34.0205 12.0366L34.0039 11.8427C33.5994 7.32174 29.7543 3.89221 25.2132 3.89221H12.0713C11.5382 3.8919 11.0179 4.05568 10.5811 4.3613C10.1443 4.66692 9.81216 5.09958 9.62978 5.60051C9.28628 6.43157 8.94153 7.26263 8.59557 8.0937H7.45056C7.05984 8.09415 6.67442 8.1841 6.32387 8.35665C5.97332 8.5292 5.66697 8.77977 5.4283 9.08913H11.9364C12.5071 9.08913 13.0722 9.10574 13.6355 9.11682C13.8303 9.12099 14.0221 9.16686 14.1977 9.25132C14.3733 9.33579 14.5289 9.45689 14.6539 9.60649C14.7788 9.75611 14.8703 9.93074 14.9221 10.1186C14.9738 10.3065 14.9848 10.5034 14.9541 10.6958L13.4194 14.9065H12.6937L14.1563 10.8436H13.702L12.2375 14.9065H11.3141L12.7804 10.8436C10.3611 10.7956 8.40351 10.7494 5.98419 10.7032C5.69857 10.6981 5.41713 10.7724 5.17126 10.9178C4.92538 11.0632 4.72474 11.2741 4.5917 11.5269C4.47692 11.7459 4.39242 11.9795 4.34053 12.2213C4.32147 12.3096 4.32373 12.4012 4.3471 12.4885C4.37047 12.5757 4.41429 12.6562 4.47494 12.7232C4.53558 12.7901 4.61131 12.8417 4.69585 12.8735C4.78038 12.9054 4.8713 12.9167 4.96107 12.9065H4.97398C5.10489 12.8834 5.2285 12.8297 5.33473 12.7498C5.44095 12.6699 5.5268 12.566 5.58529 12.4466H9.79599C9.79746 12.5279 9.78275 12.6087 9.75271 12.6842C9.72267 12.7598 9.67791 12.8286 9.62102 12.8867C9.56413 12.9448 9.49626 12.991 9.42136 13.0226C9.34645 13.0542 9.266 13.0706 9.1847 13.0709H6.98332C3.93609 22.1312 1.79748 28.656 0.91287 30.6708C0.0282514 32.6858 0.781747 33.5279 1.42813 33.8455C1.70757 33.9795 2.01396 34.0477 2.32383 34.045H7.87902L11.5726 23.2505H10.4775C10.1934 23.2505 9.92093 23.1375 9.72005 22.9366C9.51917 22.7357 9.40632 22.4634 9.40632 22.1792H15.6097C18.2377 25.8729 20.8657 29.6182 23.4938 33.3173C26.0201 33.3173 28.5466 33.2786 31.0656 33.2786L22.2988 21.4885L25.1964 21.5679C27.3009 21.5763 29.3388 20.831 30.9411 19.4668C32.5436 18.1026 33.6045 16.2097 33.9318 14.1309C34.0382 13.4381 34.068 12.7358 34.0205 12.0366ZM11.713 16.3582H10.8634L11.279 15.2094H12.1267L11.713 16.3582ZM12.8931 16.3582H12.2504L12.6622 15.2168H13.3086L12.8931 16.3582ZM16.6883 16.3582C15.8609 16.3582 14.8513 16.3582 13.6595 16.3582L14.0731 15.2224H17.1001L16.6883 16.3582ZM14.1859 14.9065L15.6171 10.9766C16.8471 10.9932 17.8665 11.0006 18.62 11.0024L17.2109 14.9065H14.1859ZM18.1398 16.3655H17.7538H17.4528L17.8646 15.2131H18.5535L18.1398 16.3655ZM17.9754 14.9065L19.3846 11.0043H20.0808L18.6644 14.9065H17.9754ZM21.9627 15.673C20.9137 16.2031 19.9313 16.3341 18.9062 16.36L19.32 15.2131C19.9708 15.2476 20.623 15.2476 21.2739 15.2131C22.2435 15.1632 22.683 15.0636 23.1207 14.8308C23.3044 14.7318 23.4772 14.6136 23.636 14.4781C23.1447 14.9622 22.58 15.3655 21.9627 15.673ZM24.1068 13.4568C23.9222 14.1198 23.2481 14.4357 22.8825 14.6055C22.3912 14.8308 21.959 14.8622 21.1224 14.9102C20.559 14.9447 19.9941 14.9447 19.4308 14.9102L20.8343 11.019C21.019 10.9858 22.5389 10.7568 23.4938 11.7725C23.6231 11.9055 24.3285 12.6461 24.1068 13.4531V13.4568Z" fill="url(#paint2_linear_0_139)" />
    <path d="M13.7204 12.0697L14.1599 10.8508H13.7L13.002 12.7881L13.7204 12.0697Z" fill="url(#paint3_linear_0_139)" />
    <path d="M14.5054 9.45294C14.6791 9.60527 14.8114 9.79919 14.8899 10.0165C14.9684 10.2339 14.9904 10.4676 14.9541 10.6958L14.8747 10.9101L21.9055 3.89221H20.0808L14.5054 9.45294Z" fill="url(#paint4_linear_0_139)" />
    <path d="M11.5554 14.2346L12.5915 11.3665L5.01959 18.9384C4.69702 19.9036 4.38922 20.8227 4.09619 21.6956L11.5554 14.2346Z" fill="url(#paint5_linear_0_139)" />
    <path d="M30.5079 5.63403L23.876 12.2659C23.9919 12.4384 24.0721 12.6323 24.1118 12.8363C24.1513 13.0403 24.1498 13.2501 24.1069 13.4534C23.9223 14.1164 23.2482 14.4322 22.8825 14.6021C22.4152 14.8163 22.0034 14.8551 21.2407 14.9013L20.9138 15.2301L21.274 15.2134C22.2435 15.1636 22.6831 15.0638 23.1208 14.8311C23.3044 14.7321 23.4772 14.6138 23.636 14.4783C23.1482 14.9615 22.5873 15.3648 21.9739 15.6733C21.3113 16.0075 20.5936 16.2189 19.8556 16.2975L13.9624 22.1759H15.6099C15.989 22.7078 16.367 23.2409 16.7438 23.7752L32.6262 7.89267C32.0584 7.02109 31.3414 6.25649 30.5079 5.63403Z" fill="url(#paint6_linear_0_139)" />
    <path d="M10.8818 25.2599L2.10767 34.0341C2.17945 34.0415 2.25156 34.0452 2.32374 34.0452H6.4772L8.60657 31.9139L10.8818 25.2599Z" fill="url(#paint7_linear_0_139)" />
    <path d="M25.2127 3.89227H23.3382L16.239 10.984C17.192 10.9951 17.9973 11.0006 18.6196 11.0025L17.2105 14.9066H14.1854L15.2565 11.9665L14.0525 13.1707L13.419 14.9066H12.6932L12.9075 14.3119L12.0099 15.2131H12.1262L11.7126 16.3582H10.863L3.35763 23.8654C2.21999 27.2248 1.38709 29.5961 0.912458 30.6709C0.173738 32.3497 0.563413 33.1955 1.08236 33.6258L11.4577 23.2505H10.4771C10.193 23.2505 9.92051 23.1376 9.71963 22.9367C9.51875 22.7359 9.4059 22.4634 9.4059 22.1793H12.5288L19.2216 15.4865L19.3195 15.2131H19.4876L19.783 14.9159C19.6593 14.9159 19.5412 14.9159 19.4303 14.8992L20.8339 11.008C21.0056 10.9785 22.2559 10.7901 23.2016 11.4993L29.6413 5.05945C28.2929 4.28919 26.7656 3.8867 25.2127 3.89227ZM12.8927 16.3508H12.25L12.6618 15.2094H13.3082L12.8927 16.3508ZM16.6878 16.3508C15.8605 16.3508 14.8509 16.3508 13.6591 16.3508L14.0727 15.215H17.0997L16.6878 16.3508ZM18.1394 16.3619H17.7535H17.4525L17.8643 15.2131H18.5531L18.1394 16.3619ZM18.6639 14.903H17.9751L19.3841 11.0006H20.0804L18.6639 14.903Z" fill="url(#paint8_linear_0_139)" />
    <path d="M41.2576 31.4265V9.87429H46.8459C48.1096 9.8486 49.3698 10.0142 50.584 10.3655C51.5634 10.6483 52.4127 11.2651 52.9848 12.1089C53.5449 12.9437 53.8245 14.0967 53.8232 15.568C53.8305 16.3608 53.7525 17.1521 53.5905 17.9281C53.4563 18.5735 53.184 19.182 52.7927 19.7122C52.37 20.2484 51.815 20.6652 51.1822 20.9219L54.1631 31.432H49.6661L47.1913 21.6662H45.6474V31.432L41.2576 31.4265ZM45.6474 19.053H46.9253C47.6345 19.053 48.193 18.9372 48.6004 18.7057C49.0095 18.475 49.3182 18.1005 49.4666 17.6549C49.6491 17.0923 49.7347 16.5028 49.7197 15.9115C49.7197 14.9191 49.5349 14.1613 49.1656 13.6381C48.7962 13.1148 48.119 12.8532 47.134 12.8532H45.6437L45.6474 19.053Z" fill="#F9F9F9" />
    <path d="M62.2359 31.7199C60.6033 31.7199 59.3345 31.4403 58.4296 30.8814C57.5276 30.324 56.8532 29.4638 56.5274 28.4547C56.158 27.3983 55.9734 26.1167 55.9734 24.6097V9.87402H60.3097V25.2266C60.3094 25.752 60.3496 26.2768 60.4297 26.7963C60.485 27.255 60.6694 27.6887 60.9616 28.0466C61.2361 28.3667 61.6579 28.5268 62.2266 28.5268C62.7955 28.5268 63.2264 28.3667 63.5194 28.0466C63.8096 27.6888 63.9899 27.2544 64.0383 26.7963C64.109 26.276 64.1442 25.7516 64.1436 25.2266V9.87402H68.4818V24.6153C68.4818 26.1222 68.2971 27.4039 67.9277 28.4603C67.6013 29.4675 66.927 30.3258 66.0256 30.8814C65.1304 31.4391 63.8672 31.7186 62.2359 31.7199Z" fill="#F9F9F9" />
    <path d="M76.6641 31.7201C75.3331 31.7201 74.2251 31.4738 73.3398 30.9813C72.4442 30.4843 71.7378 29.7051 71.3306 28.7652C70.8787 27.7803 70.617 26.5257 70.5457 25.0014L74.3242 24.3624C74.3422 25.1086 74.4357 25.8511 74.6031 26.5785C74.7036 27.0783 74.9437 27.5394 75.2957 27.9082C75.4503 28.054 75.6321 28.1678 75.8309 28.2433C76.0295 28.3187 76.2412 28.3542 76.4535 28.3478C77.0211 28.3478 77.4065 28.1705 77.6096 27.8159C77.8193 27.4424 77.9251 27.0196 77.9162 26.5914C77.9442 25.7833 77.7161 24.987 77.2643 24.3162C76.7661 23.6361 76.1903 23.0163 75.5486 22.4694L73.3121 20.5266C72.5368 19.8792 71.8762 19.1056 71.3582 18.2384C70.8522 17.3864 70.5992 16.3399 70.5992 15.0989C70.5992 13.3259 71.1182 11.9648 72.156 11.0156C73.194 10.0663 74.6166 9.60029 76.424 9.61753C77.5063 9.61753 78.3934 9.79482 79.0852 10.1494C79.7401 10.4708 80.2965 10.9627 80.6957 11.5733C81.0763 12.1677 81.3465 12.8258 81.4934 13.5161C81.6421 14.2038 81.7353 14.9022 81.7723 15.6049L78.0215 16.159C77.993 15.5765 77.9352 14.9958 77.8478 14.4192C77.7977 13.9928 77.6323 13.5879 77.3695 13.2484C77.2337 13.1004 77.066 12.9852 76.8792 12.9112C76.6925 12.8374 76.4913 12.8067 76.2911 12.8217C76.0668 12.8074 75.843 12.8529 75.6421 12.9534C75.4412 13.054 75.2707 13.2062 75.1479 13.3943C74.9024 13.7695 74.7738 14.2091 74.7785 14.6574C74.7499 15.3239 74.9322 15.9824 75.2993 16.5394C75.7139 17.1019 76.1916 17.6149 76.7232 18.0684L78.9043 19.9855C79.8044 20.7609 80.5887 21.6615 81.2331 22.6596C81.8794 23.6618 82.2033 24.8992 82.2045 26.3717C82.2178 27.3301 81.979 28.2753 81.5119 29.1123C81.0604 29.918 80.3926 30.5814 79.5839 31.0275C78.687 31.5073 77.6809 31.7458 76.6641 31.7201Z" fill="#F9F9F9" />
    <path d="M86.5186 31.4262V13.1428H83.1943V9.87402H94.2106V13.1466H90.9362V31.4299L86.5186 31.4262Z" fill="#F9F9F9" />
    <path d="M99.5407 31.4262V22.8847L95.3374 9.87402H99.4613L101.775 17.4569L103.925 9.87402H107.918L103.766 22.8847V31.4262H99.5407Z" fill="#F9F9F9" />
    <path d="M109.61 31.4262V9.87402H114V28.4547H119.056V31.4355L109.61 31.4262Z" fill="#FFC239" />
    <path d="M126.85 31.7203C125.271 31.7203 124.021 31.4364 123.097 30.8689C122.179 30.3054 121.48 29.4463 121.116 28.4329C120.716 27.379 120.517 26.1152 120.517 24.6415V16.606C120.517 15.1285 120.716 13.869 121.116 12.8275C121.478 11.8219 122.179 10.9733 123.097 10.4266C124.021 9.8873 125.271 9.61768 126.85 9.61768C128.428 9.61768 129.691 9.89715 130.641 10.4561C131.563 11.003 132.267 11.851 132.635 12.857C133.035 13.8949 133.235 15.1501 133.236 16.6226V24.658C133.236 26.1354 133.036 27.3993 132.635 28.4495C132.269 29.4658 131.565 30.3256 130.641 30.8854C129.709 31.442 128.445 31.7203 126.85 31.7203ZM126.85 28.553C127.416 28.553 127.834 28.4255 128.1 28.167C128.38 27.884 128.566 27.5216 128.632 27.129C128.723 26.6693 128.767 26.2016 128.765 25.7328V15.5422C128.768 15.0778 128.723 14.6143 128.632 14.159C128.564 13.7683 128.38 13.4078 128.1 13.1266C127.834 12.8803 127.417 12.7572 126.85 12.7572C126.317 12.7572 125.926 12.8865 125.651 13.1432C125.373 13.4224 125.188 13.7802 125.119 14.1682C125.028 14.6235 124.983 15.087 124.986 15.5515V25.7421C124.984 26.2102 125.024 26.6775 125.106 27.1383C125.164 27.5308 125.346 27.8944 125.625 28.1762C125.891 28.4255 126.3 28.553 126.85 28.553Z" fill="#FFC239" />
    <path d="M141.646 31.7203C140.067 31.7203 138.817 31.4364 137.894 30.8689C136.975 30.3054 136.276 29.4463 135.911 28.4329C135.518 27.379 135.321 26.1152 135.321 24.6415V16.606C135.321 15.1285 135.52 13.869 135.919 12.8275C136.282 11.8219 136.982 10.9733 137.901 10.4266C138.818 9.8873 140.066 9.61768 141.646 9.61768C143.226 9.61768 144.489 9.89715 145.437 10.4561C146.359 11.003 147.063 11.851 147.432 12.857C147.831 13.8949 148.03 15.1501 148.03 16.6226V24.658C148.03 26.1354 147.831 27.3993 147.432 28.4495C147.065 29.4658 146.361 30.3256 145.437 30.8854C144.506 31.442 143.241 31.7203 141.646 31.7203ZM141.646 28.553C142.212 28.553 142.631 28.4255 142.896 28.167C143.176 27.884 143.362 27.5216 143.428 27.129C143.52 26.6693 143.563 26.2016 143.561 25.7328V15.5422C143.565 15.0778 143.52 14.6143 143.428 14.159C143.361 13.7679 143.173 13.4073 142.893 13.1266C142.63 12.8803 142.214 12.7572 141.646 12.7572C141.111 12.7572 140.712 12.8859 140.448 13.1432C140.169 13.4224 139.984 13.7802 139.916 14.1682C139.824 14.6235 139.779 15.087 139.783 15.5515V25.7421C139.78 26.2102 139.821 26.6775 139.903 27.1383C139.961 27.5308 140.142 27.8944 140.422 28.1762C140.687 28.4255 141.096 28.553 141.646 28.553Z" fill="#FFC239" />
    <path d="M152.804 31.4262V13.1428H149.479V9.87402H160.495V13.1466H157.222V31.4299L152.804 31.4262Z" fill="#FFC239" />
  </g>
  <defs>
    <linearGradient id="paint0_linear_0_139" x1="29.9901" y1="4.4558" x2="16.6358" y2="57.134" gradientUnits="userSpaceOnUse">
      <stop stop-color="#FF922E" />
      <stop offset="1" stop-color="#FFC239" />
    </linearGradient>
    <linearGradient id="paint1_linear_0_139" x1="23.4163" y1="2.788" x2="10.0603" y2="55.4662" gradientUnits="userSpaceOnUse">
      <stop stop-color="#FF922E" />
      <stop offset="1" stop-color="#FFC239" />
    </linearGradient>
    <linearGradient id="paint2_linear_0_139" x1="24.5076" y1="7.4233" x2="6.17072" y2="47.7538" gradientUnits="userSpaceOnUse">
      <stop stop-color="#F9F9F9" />
      <stop offset="1" stop-color="#B5B5B5" />
    </linearGradient>
    <linearGradient id="paint3_linear_0_139" x1="-4.20656" y1="29.0825" x2="39.3374" y2="-13.7319" gradientUnits="userSpaceOnUse">
      <stop stop-color="#F9F9F9" />
      <stop offset="1" stop-color="#B5B5B5" />
    </linearGradient>
    <linearGradient id="paint4_linear_0_139" x1="-4.38933" y1="28.8961" x2="39.1546" y2="-13.9165" gradientUnits="userSpaceOnUse">
      <stop stop-color="#F9F9F9" />
      <stop offset="1" stop-color="#B5B5B5" />
    </linearGradient>
    <linearGradient id="paint5_linear_0_139" x1="-4.3123" y1="28.9739" x2="39.2316" y2="-13.8387" gradientUnits="userSpaceOnUse">
      <stop stop-color="#F9F9F9" />
      <stop offset="1" stop-color="#B5B5B5" />
    </linearGradient>
    <linearGradient id="paint6_linear_0_139" x1="2.28696" y1="35.6871" x2="45.8309" y2="-7.12737" gradientUnits="userSpaceOnUse">
      <stop stop-color="#F9F9F9" />
      <stop offset="1" stop-color="#B5B5B5" />
    </linearGradient>
    <linearGradient id="paint7_linear_0_139" x1="2.41239" y1="35.8144" x2="45.9564" y2="-7.00001" gradientUnits="userSpaceOnUse">
      <stop stop-color="#F9F9F9" />
      <stop offset="1" stop-color="#B5B5B5" />
    </linearGradient>
    <linearGradient id="paint8_linear_0_139" x1="-1.30002" y1="32.0394" x2="42.2439" y2="-10.775" gradientUnits="userSpaceOnUse">
      <stop stop-color="#F9F9F9" />
      <stop offset="1" stop-color="#B5B5B5" />
    </linearGradient>
    <clipPath id="clip0_0_139">
      <rect width="159.993" height="39.1094" fill="white" transform="translate(0.503662 0.9375)" />
    </clipPath>
  </defs>
</svg>