<svg width="26" height="26" viewBox="0 0 26 26" fill="none" xmlns="http://www.w3.org/2000/svg">
  <g>
    <path d="M15.52 18.5701L3.64001 6.86013C2.29407 5.54168 1.52469 3.74408 1.5 1.86013C3.38453 1.83283 5.2034 2.55175 6.56 3.86012L18.45 15.5701L15.52 18.5701Z" stroke="#4D5B97" stroke-width="1.5" stroke-linecap="round" stroke-linejoin="round" />
    <path d="M20.5494 18.1797L23.8994 21.4697C24.0669 21.6361 24.1998 21.8339 24.2905 22.0519C24.3812 22.2698 24.4279 22.5036 24.4279 22.7397C24.4279 22.9758 24.3812 23.2095 24.2905 23.4275C24.1998 23.6455 24.0669 23.8433 23.8994 24.0097C23.5646 24.3389 23.1139 24.5234 22.6444 24.5234C22.1749 24.5234 21.7242 24.3389 21.3894 24.0097L17.9893 20.6997" stroke="#4D5B97" stroke-width="1.5" stroke-linecap="round" stroke-linejoin="round" />
    <path d="M14.7695 23.6402L23.4995 14.9102" stroke="#3B436B" stroke-width="1.5" stroke-linecap="round" stroke-linejoin="round" />
    <path d="M10.6397 18.4105L7.63965 15.4805" stroke="#2D3660" stroke-width="1.5" stroke-linecap="round" stroke-linejoin="round" />
    <path d="M15.2002 7.81L19.3103 3.63C20.631 2.28865 22.428 1.52313 24.3103 1.5C24.3365 3.38433 23.6177 5.20281 22.3103 6.56L18.2402 10.82" stroke="#2D3660" stroke-width="1.5" stroke-linecap="round" stroke-linejoin="round" />
    <path d="M8.00012 20.5109L4.70013 23.8609C4.53531 24.0293 4.3385 24.1631 4.12127 24.2545C3.90405 24.3459 3.67077 24.3929 3.43512 24.3929C3.19946 24.3929 2.96618 24.3459 2.74896 24.2545C2.53173 24.1631 2.33499 24.0293 2.17016 23.8609C1.83919 23.5291 1.65332 23.0795 1.65332 22.6109C1.65332 22.1422 1.83919 21.6927 2.17016 21.3609L5.47015 17.9609" stroke="#3B436B" stroke-width="1.5" stroke-linecap="round" stroke-linejoin="round" />
    <path d="M2.54004 14.7305L11.26 23.4505" stroke="#2D3660" stroke-width="1.5" stroke-linecap="round" stroke-linejoin="round" />
  </g>
</svg>